<svg width="68" height="68" viewBox="0 0 68 68" fill="none" xmlns="http://www.w3.org/2000/svg">
<g clip-path="url(#clip0_1068_196)">
<path d="M67.028 33.889C67.028 15.4796 52.104 0.555664 33.6947 0.555664C15.2853 0.555664 0.361328 15.4796 0.361328 33.889C0.361328 50.5265 12.5509 64.3169 28.4863 66.8174V43.5244H20.0228V33.889H28.4863V26.5452C28.4863 18.1911 33.4629 13.5765 41.077 13.5765C44.7238 13.5765 48.5384 14.2275 48.5384 14.2275V22.4307H44.3353C40.1944 22.4307 38.903 25.0002 38.903 27.6364V33.889H48.1478L46.6699 43.5244H38.903V66.8174C54.8384 64.3169 67.028 50.5268 67.028 33.889Z" fill="#1877F2"/>
<path d="M46.6706 43.5241L48.1484 33.8887H38.9036V27.6361C38.9036 24.9996 40.1951 22.4303 44.3359 22.4303H48.5391V14.2272C48.5391 14.2272 44.7245 13.5762 41.0773 13.5762C33.4635 13.5762 28.487 18.1908 28.487 26.5449V33.8887H20.0234V43.5241H28.487V66.8171C30.2099 67.087 31.9513 67.2224 33.6953 67.222C35.4393 67.2224 37.1807 67.087 38.9036 66.8171V43.5241H46.6706Z" fill="white"/>
</g>
<defs>
<clipPath id="clip0_1068_196">
<rect width="66.6667" height="66.6667" fill="white" transform="translate(0.361328 0.555664)"/>
</clipPath>
</defs>
</svg>
