<svg width="64" height="64" viewBox="0 0 64 64" fill="none" xmlns="http://www.w3.org/2000/svg">
<rect width="64" height="64" fill="#782849"/>
<path d="M40.435 36.0488C42.5183 37.8063 43.9559 40.0548 44.2325 42.8107C44.451 46.1359 43.7822 48.9009 41.6093 51.5054C39.6038 53.6318 37.0374 54.6856 34.1452 54.826C33.1501 54.8888 32.2415 55.0249 31.2761 55.2703C27.0783 56.2289 23.0808 55.3323 19.2282 53.5819C18.0402 53.1066 16.8115 53.0405 15.5466 53.1248C15.1828 53.3531 15.1828 53.3531 14.9372 53.7342C14.0617 54.6311 13.7143 54.9804 12.4462 55.0006C12.2401 55.0021 12.2401 55.0021 12.03 55.0037C11.629 55.0116 11.629 55.0116 11.2199 55.0196C10.4244 54.949 10.0668 54.8434 9.45283 54.3436C8.91195 53.5897 8.7668 53.0698 8.76461 52.1473C8.76173 51.7985 8.76173 51.7985 8.75879 51.4427C8.76064 51.0688 8.76064 51.0688 8.76253 50.6873C8.76194 50.4297 8.76136 50.172 8.76076 49.9066C8.76035 49.3622 8.76116 48.818 8.76401 48.2736C8.76749 47.5776 8.76549 46.8818 8.76184 46.1857C8.7591 45.5196 8.76102 44.8535 8.76253 44.1873C8.76129 43.9381 8.76006 43.6888 8.75879 43.432C8.76071 43.1994 8.76263 42.9669 8.76461 42.7274C8.76509 42.5234 8.76558 42.3194 8.76608 42.1093C8.88477 41.2463 9.23066 40.7095 9.90431 40.1685C10.624 39.8537 11.195 39.8336 11.9792 39.8328C12.2387 39.8289 12.4982 39.825 12.7655 39.8209C13.6318 39.9373 14.0613 40.1862 14.7341 40.7342C14.8681 40.9353 15.0022 41.1364 15.1403 41.3436C15.2967 41.2812 15.453 41.2188 15.6141 41.1546C21.8771 38.6611 21.8771 38.6611 24.4333 37.9349C25.4762 37.6274 25.8499 37.3558 26.5153 36.4686C30.6226 33.1333 36.1469 32.7682 40.435 36.0488ZM27.9372 37.4842C27.9372 37.5512 27.9372 37.6183 27.9372 37.6873C28.2467 37.6987 28.2467 37.6987 28.5625 37.7103C33.2672 37.9197 33.2672 37.9197 35.0466 39.3123C35.1866 39.7849 35.3218 40.259 35.4528 40.7342C35.7692 41.0436 35.7692 41.0436 36.1511 41.3182C36.8622 41.8835 37.1776 42.3817 37.4254 43.255C37.5382 44.2661 37.3088 45.2366 37.0778 46.2186C37.2004 46.2801 37.3229 46.3416 37.4492 46.405C39.0835 47.2617 39.7639 48.2306 40.531 49.8748C41.1823 49.286 41.5396 48.7483 41.8894 47.9451C42.0162 47.6592 42.0162 47.6592 42.1456 47.3675C42.8587 45.565 42.8597 43.1793 42.2321 41.3436C41.2053 38.9832 39.6097 37.0829 37.2048 36.0623C34.0001 34.8447 30.6204 35.2821 27.9372 37.4842ZM20.2185 41.1405C19.7737 41.3176 19.3288 41.4945 18.8839 41.6713C17.6346 42.168 16.3877 42.6701 15.1403 43.1717C15.1403 45.92 15.1403 48.6683 15.1403 51.4998C15.7436 51.4998 16.3469 51.4998 16.9685 51.4998C18.5439 51.5963 19.8984 51.9838 21.3356 52.6043C24.1135 53.798 26.5668 54.0227 29.5622 53.9373C29.0063 53.5113 28.4378 53.1219 27.8483 52.744C25.925 51.4617 24.7153 49.7686 23.8747 47.6404C23.8003 47.4548 23.726 47.2692 23.6494 47.0779C23.5598 46.8536 23.5598 46.8536 23.4685 46.6248C23.2949 46.6125 23.1213 46.6002 22.9424 46.5875C22.718 46.5705 22.4936 46.5535 22.2624 46.536C22.0385 46.5195 21.8147 46.503 21.584 46.486C21.031 46.4217 21.031 46.4217 20.8278 46.2186C20.8196 45.8801 20.8192 45.5414 20.8278 45.203C20.9632 45.1977 21.0986 45.1925 21.2381 45.1871C23.2477 45.0634 24.9687 44.6179 26.486 43.2463C26.7619 42.977 26.7619 42.977 26.7185 42.5623C26.9893 42.4269 27.2601 42.2915 27.531 42.1561C27.6401 42.088 27.7493 42.0199 27.8618 41.9498C28.556 41.6616 29.2653 41.6351 30.0065 41.5721C31.3596 41.4388 32.4166 41.19 33.6247 40.5311C32.763 39.5514 31.5706 39.3725 30.3083 39.2763C26.6725 39.1107 23.5784 39.7843 20.2185 41.1405ZM10.4685 41.953C10.4062 42.4347 10.4062 42.4347 10.4159 42.9995C10.4146 43.2178 10.4133 43.436 10.412 43.6609C10.4128 43.8975 10.4137 44.134 10.4145 44.3778C10.4141 44.6197 10.4137 44.8616 10.4133 45.1109C10.413 45.6231 10.4138 46.1354 10.4155 46.6476C10.4177 47.4341 10.4155 48.2204 10.4129 49.0068C10.4132 49.5035 10.4137 50.0002 10.4145 50.4969C10.4137 50.7335 10.4129 50.97 10.412 51.2137C10.4133 51.432 10.4146 51.6503 10.4159 51.8751C10.4162 52.0679 10.4165 52.2606 10.4169 52.4592C10.4242 52.962 10.4242 52.962 10.8747 53.3279C11.4027 53.3928 11.4027 53.3928 11.9919 53.3787C12.1909 53.3798 12.3899 53.3808 12.5949 53.3819C13.1434 53.3789 13.1434 53.3789 13.5153 52.9217C13.5776 52.44 13.5776 52.44 13.5679 51.8751C13.5692 51.6569 13.5705 51.4386 13.5718 51.2137C13.571 50.9772 13.5701 50.7406 13.5693 50.4969C13.5699 50.134 13.5699 50.134 13.5705 49.7638C13.5707 49.2515 13.57 48.7393 13.5683 48.227C13.5661 47.4406 13.5683 46.6543 13.5709 45.8679C13.5706 45.3712 13.5701 44.8745 13.5693 44.3778C13.5701 44.1412 13.5709 43.9046 13.5718 43.6609C13.5705 43.4427 13.5692 43.2244 13.5679 42.9995C13.5676 42.8068 13.5673 42.6141 13.5669 42.4155C13.5596 41.9126 13.5596 41.9126 13.1091 41.5467C12.5811 41.4818 12.5811 41.4818 11.9919 41.4959C11.7929 41.4949 11.5939 41.4938 11.3889 41.4927C10.8404 41.4958 10.8404 41.4958 10.4685 41.953ZM32.8122 42.5623C32.5231 42.6692 32.5231 42.6692 32.2282 42.7781C31.7625 42.9288 31.7625 42.9288 31.5935 43.3748C31.5115 44.2269 31.5443 44.7002 31.9362 45.4696C32.4356 46.0499 32.6793 46.2626 33.4216 46.4217C34.407 46.3806 34.9771 46.1227 35.656 45.4061C36.0441 44.5489 36.1027 44.1362 35.8591 43.2225C34.989 41.8086 34.2016 41.8297 32.8122 42.5623ZM27.7341 43.9842C27.5016 44.2293 27.5016 44.2293 27.2644 44.4793C26.6011 45.1118 25.882 45.5556 25.0935 46.0155C25.4285 47.5792 25.8735 49.0055 27.1247 50.0779C27.1645 49.9478 27.2043 49.8177 27.2453 49.6836C27.8428 47.9555 28.747 47.0324 30.3747 46.2186C30.2406 45.2131 30.1066 44.2076 29.9685 43.1717C28.6366 43.1713 28.6366 43.1713 27.7341 43.9842ZM28.9528 49.1131C28.6625 49.9114 28.7003 50.6596 28.7497 51.4998C29.1519 51.7009 29.5541 51.902 29.9685 52.1092C30.0355 51.3048 30.1025 50.5005 30.1716 49.6717C30.5067 49.6717 30.8419 49.6717 31.1872 49.6717C31.5815 50.0659 31.4714 50.7834 31.5046 51.3094C31.5216 51.5715 31.5386 51.8336 31.5562 52.1036C31.5685 52.3066 31.5808 52.5095 31.5935 52.7186C32.4046 53.1021 33.0485 53.1743 33.9421 53.1629C34.1686 53.1616 34.3951 53.1603 34.6284 53.1589C35.2885 53.1423 35.2885 53.1423 36.0622 52.9217C36.1292 51.8492 36.1963 50.7767 36.2653 49.6717C36.6005 49.6717 36.9356 49.6717 37.281 49.6717C37.5282 50.1661 37.549 50.5692 37.5983 51.119C37.6154 51.3038 37.6324 51.4887 37.6499 51.6791C37.6622 51.8211 37.6745 51.963 37.6872 52.1092C38.3473 51.8882 38.3473 51.8882 38.906 51.4998C38.9895 50.4341 38.8826 49.7577 38.2966 48.8592C37.5696 48.14 36.991 47.6517 35.948 47.6151C35.1685 47.6222 34.4113 47.7067 33.6406 47.819C33.1815 47.8457 32.8461 47.7656 32.406 47.6404C30.9203 47.469 29.9232 48.0215 28.9528 49.1131Z" fill="white"/>
<path d="M52.0839 13.0458C54.0652 14.6002 55.4472 16.6833 55.7656 19.203C56.0175 22.1384 55.2349 24.4888 53.3804 26.7424C51.7314 28.5557 49.5887 29.3721 47.1938 29.606C44.7683 29.7149 42.5256 28.8443 40.7089 27.2899C38.8958 25.5796 37.8784 23.6757 37.6168 21.166C37.5408 18.3837 38.4245 15.9538 40.3138 13.9051C43.5596 10.8981 48.4227 10.5468 52.0839 13.0458ZM40.8867 15.8133C39.4981 17.5198 39.1512 19.493 39.3124 21.6405C39.5517 22.8686 39.9407 23.9177 40.7343 24.8905C40.8684 24.8905 41.0024 24.8905 41.1406 24.8905C41.1898 24.7703 41.239 24.6501 41.2897 24.5263C41.9306 23.0154 42.5573 22.1099 43.9843 21.2342C43.8796 21.008 43.7748 20.7818 43.6669 20.5487C43.286 19.5256 43.3187 18.6315 43.5781 17.578C44.0343 16.6819 44.4754 16.1429 45.4062 15.7499C46.6635 15.4392 47.729 15.4923 48.8593 16.1561C49.542 16.8209 49.8812 17.4597 50.0781 18.3905C50.0619 19.4019 49.9125 20.317 49.4687 21.2342C49.6305 21.345 49.6305 21.345 49.7956 21.458C51.1203 22.4008 51.8578 23.2992 52.3124 24.8905C52.9561 24.7512 52.9561 24.7512 53.1963 24.2073C53.2817 24.0096 53.3671 23.8119 53.455 23.6083C53.5414 23.4122 53.6278 23.216 53.7169 23.014C54.4449 21.1625 54.3123 19.1935 53.5312 17.3749C52.4853 15.3906 50.9758 14.0523 48.8593 13.3124C45.8464 12.3829 42.9402 13.601 40.8867 15.8133ZM45.4062 17.578C44.9291 18.1663 44.794 18.4542 44.8095 19.2157C45.0319 19.9126 45.2226 20.1944 45.8124 20.6249C46.5306 20.8541 46.8782 20.892 47.5771 20.5995C48.1156 20.1629 48.388 19.8437 48.6562 19.203C48.6413 18.4753 48.5397 18.1029 48.1103 17.5145C47.1295 16.7988 46.3418 16.8194 45.4062 17.578ZM43.2988 23.786C42.6829 24.7098 42.4883 25.3975 42.3593 26.5155C44.3176 27.6693 46.1265 28.2141 48.4023 27.8104C49.3834 27.5483 50.2354 27.0471 51.0937 26.5155C50.8483 25.0625 50.4976 24.029 49.3671 23.0116C47.2929 21.5596 44.9696 21.9833 43.2988 23.786Z" fill="white"/>
<path d="M25.9076 13.3879C27.8322 14.9615 29.1012 16.7758 29.4551 19.2705C29.7238 22.1205 29.0894 24.5111 27.358 26.8124C25.5648 28.7385 23.0299 29.7416 20.4216 29.8418C17.9241 29.7496 15.7355 28.8244 13.905 27.14C11.9281 25.0022 11.3159 22.6984 11.4143 19.8514C11.5682 17.421 12.7364 15.4033 14.4929 13.7568C17.772 11.0675 22.4566 10.866 25.9076 13.3879ZM14.3921 16.3871C13.1277 18.1769 12.8456 20.0922 13.1091 22.25C13.4361 23.3963 13.8212 24.4937 14.7341 25.2968C14.8056 25.135 14.8771 24.9732 14.9507 24.8065C15.5854 23.4444 16.154 22.5153 17.3748 21.6406C17.5088 21.5065 17.6429 21.3725 17.781 21.2343C17.6805 21.071 17.5799 20.9076 17.4763 20.7392C17.0022 19.6132 17.0011 18.6631 17.4128 17.5146C18.0194 16.6153 18.6225 16.1624 19.6599 15.8642C20.7011 15.6678 21.5176 15.8842 22.4529 16.3593C23.0511 16.8348 23.3802 17.2837 23.6716 17.9843C23.7951 19.1859 23.7496 20.3177 23.2654 21.4375C23.3879 21.5359 23.5105 21.6344 23.6367 21.7358C24.5756 22.5232 25.275 23.1916 25.7529 24.3296C25.918 24.7457 25.918 24.7457 26.3123 25.2968C27.5585 23.5454 28.1437 21.6969 27.8492 19.5395C27.4051 17.4571 26.3673 15.7057 24.6238 14.4551C21.0541 12.2843 16.9808 13.2059 14.3921 16.3871ZM18.9998 17.7812C18.5585 18.3184 18.5937 18.5998 18.6189 19.3047C18.8153 20.0902 18.952 20.3663 19.6091 20.8281C20.3456 21.0631 20.6781 21.0993 21.3865 20.7773C22.0328 20.2746 22.233 19.9415 22.3386 19.1269C22.3099 18.3676 22.3099 18.3676 21.8054 17.8066C20.7374 16.9997 20.1238 17.0568 18.9998 17.7812ZM16.9939 24.0654C16.4462 24.8547 16.1764 25.4785 16.1306 26.4394C16.5869 27.4028 17.7237 27.6379 18.6697 27.9883C20.6077 28.3892 22.4671 28.138 24.2048 27.1631C24.7252 26.7612 24.7252 26.7612 24.8396 26.1855C24.549 24.8779 23.8703 23.8049 22.8464 22.9482C22.2587 22.6606 21.8821 22.512 21.2341 22.4531C21.0075 22.4303 21.0075 22.4303 20.7763 22.4071C19.1311 22.3116 18.0897 22.8546 16.9939 24.0654Z" fill="white"/>
<path d="M33.0156 8.23438C34.0059 8.41211 34.0059 8.41211 34.2344 8.64062C34.2598 9.22159 34.2722 9.79789 34.2761 10.3791C34.2781 10.5614 34.2801 10.7437 34.2822 10.9316C34.2886 11.5372 34.2936 12.1427 34.2986 12.7484C34.3028 13.167 34.3071 13.5857 34.3114 14.0044C34.3227 15.1087 34.3327 16.2131 34.3425 17.3174C34.3527 18.4433 34.364 19.5693 34.3752 20.6952C34.3971 22.9062 34.4177 25.1171 34.4375 27.3281C35.2899 27.8019 36.1424 28.2755 36.9948 28.7492C37.1207 28.8192 37.2467 28.8891 37.3764 28.9612C38.779 29.7405 40.1817 30.5196 41.5858 31.2962C41.8064 31.4184 42.027 31.5405 42.2542 31.6664C42.6847 31.9046 43.1153 32.1427 43.546 32.3805C47.2054 34.4086 47.2054 34.4086 47.6406 34.8438C47.666 35.3516 47.666 35.3516 47.6406 35.8594C47.4375 36.0625 47.4375 36.0625 46.9432 36.145C45.866 36.0223 45.0956 35.4953 44.1748 34.9453C43.7595 34.7037 43.344 34.4625 42.9283 34.2217C42.7067 34.0926 42.4851 33.9635 42.2567 33.8305C40.9908 33.0979 39.7058 32.3992 38.4238 31.6953C38.0533 31.4915 37.6829 31.2876 37.3126 31.0835C36.9688 30.8945 36.6245 30.7065 36.2801 30.5186C35.8875 30.3004 35.4979 30.0763 35.1133 29.8442C34.8754 29.7016 34.8754 29.7016 34.6327 29.5562C34.4998 29.4733 34.3669 29.3904 34.2299 29.305C33.6767 29.1002 33.3732 29.1878 32.8125 29.3594C32.4429 29.5296 32.0797 29.714 31.7223 29.9084C31.5111 30.0226 31.3 30.1368 31.0824 30.2544C30.8573 30.378 30.6323 30.5016 30.4004 30.6289C30.1673 30.7556 29.9343 30.8824 29.6942 31.0129C27.7552 32.0693 25.8319 33.1532 23.9139 34.2471C23.7416 34.3442 23.5694 34.4414 23.3919 34.5414C23.0167 34.7544 22.6436 34.9711 22.2721 35.1905C22.0781 35.3023 21.8841 35.4141 21.6843 35.5293C21.5104 35.6314 21.3365 35.7335 21.1574 35.8387C20.5389 36.0987 20.0707 36.1033 19.4062 36.0625C19.2666 35.5928 19.2666 35.5928 19.2031 35.0469C19.6541 34.4687 20.2434 34.167 20.8789 33.8186C21.0964 33.6986 21.314 33.5787 21.5381 33.4551C21.773 33.3268 22.0079 33.1985 22.25 33.0664C22.4942 32.9321 22.7384 32.7976 22.9826 32.6631C23.4931 32.3818 24.0039 32.101 24.5149 31.8206C25.6576 31.1929 26.797 30.5593 27.9364 29.9257C28.2855 29.7317 28.6348 29.5379 28.9841 29.3441C29.3065 29.1651 29.3065 29.1651 29.6355 28.9825C29.8349 28.8719 30.0343 28.7613 30.2397 28.6473C30.7039 28.3871 31.1636 28.1207 31.6223 27.851C32.2031 27.5312 32.2031 27.5312 32.6094 27.5312C32.6085 27.2985 32.6076 27.0657 32.6066 26.8259C32.5984 24.635 32.5923 22.4441 32.5883 20.2532C32.5862 19.1267 32.5833 18.0003 32.5787 16.8739C32.5743 15.7873 32.5719 14.7008 32.5708 13.6142C32.5701 13.1992 32.5686 12.7841 32.5664 12.369C32.5635 11.7888 32.5631 11.2086 32.5633 10.6284C32.5618 10.4558 32.5603 10.2833 32.5588 10.1055C32.5616 9.30874 32.5635 8.91256 33.0156 8.23438Z" fill="white"/>
</svg>
