<svg width="40" height="40" viewBox="0 0 40 40" fill="none" xmlns="http://www.w3.org/2000/svg">
<rect width="40" height="40" fill="#782849"/>
<path d="M20.6251 10.75C22.3806 10.9191 23.9828 11.4827 25.2501 12.75C25.3766 14.4506 25.3766 14.4506 24.8751 15.125C24.4574 15.5201 24.0108 15.7446 23.5001 16C23.3081 16.384 23.3468 16.7003 23.3751 17.125C23.4939 17.5503 23.4939 17.5503 23.7501 17.875C24.1012 18.0325 24.1012 18.0325 24.5001 18C24.7522 17.8792 25.0022 17.7541 25.2501 17.625C25.9001 17.575 25.9001 17.575 26.2501 17.75C26.4255 18.492 26.3433 18.9878 26.0865 19.7007C25.991 20.0314 25.9581 20.283 26.0001 20.625C26.4306 20.912 26.7424 20.9425 27.2501 21C27.0097 22.5216 25.8754 23.7941 24.6876 24.7031C24.2743 25 24.2743 25 24.1251 25C24.1045 24.862 24.1045 24.862 24.0836 24.7212C23.9472 23.8012 23.9472 23.8012 23.5001 23C23.1593 22.8296 22.8648 22.8514 22.4845 22.8359C21.7351 22.7837 21.2561 22.6548 20.6251 22.25C20.3046 21.7693 20.3113 21.5737 20.3751 21C20.6812 20.1009 21.1994 19.4907 21.8888 18.8516C22.1776 18.5747 22.2404 18.443 22.297 18.0469C22.2208 17.3614 21.8568 16.8568 21.3751 16.375C21.0666 16.2208 20.8405 16.2216 20.5001 16.25C20.4034 16.4743 20.4034 16.4743 20.3048 16.7031C20.0654 17.2382 19.8179 17.7692 19.5626 18.2969C19.4917 18.4448 19.4208 18.5927 19.3477 18.7451C19.1328 19.1118 18.9952 19.299 18.6251 19.5C17.928 19.4871 17.5663 19.2525 17.0001 18.875C16.7356 18.8672 16.7356 18.8672 16.5001 19C16.3698 19.2766 16.3698 19.2766 16.2891 19.6172C16.007 20.4746 15.4987 20.992 14.8751 21.625C14.7069 21.8085 14.5401 21.9933 14.3751 22.1797C14.3055 22.2569 14.2359 22.3341 14.1641 22.4136C13.9738 22.6347 13.9738 22.6347 13.8751 23C13.3534 22.8261 13.3064 22.5792 13.0626 22.0938C12.0165 19.9468 11.9915 17.7333 12.7501 15.5C13.3131 14.1429 14.3942 12.8181 15.6251 12C15.9669 11.9146 15.9669 11.9146 16.2501 11.875C16.7763 12.8052 16.919 13.7143 16.6925 14.7681C16.6314 14.9713 16.566 15.1733 16.5001 15.375C16.4476 15.714 16.4476 15.714 16.5001 16C16.9487 16.2991 17.0954 16.32 17.6251 16.25C18.3286 15.941 18.9443 15.4702 19.2501 14.75C19.3268 14.2147 19.2959 13.7623 19.1251 13.25C18.9595 13.1645 18.7928 13.0813 18.6251 13C18.3751 12.625 18.3751 12.625 18.3892 12.3628C18.5001 12.125 18.5001 12.125 18.732 12.0161C18.8763 11.9811 18.8763 11.9811 19.0235 11.9453C19.7596 11.7308 20.1939 11.3968 20.6251 10.75Z" fill="white"/>
<path d="M20.625 16.5C21.0776 16.5309 21.3167 16.5745 21.6641 16.875C21.9424 17.3698 22.0596 17.8059 22 18.375C21.75 18.6875 21.75 18.6875 21.375 19C20.6998 19.7755 20.0643 20.5088 20.1328 21.5859C20.1905 21.9401 20.2452 22.1177 20.4453 22.4219C21.2485 22.9573 21.9743 23.0438 22.9204 23.062C23.25 23.125 23.25 23.125 23.4727 23.3267C23.6668 23.7068 23.7185 24.0461 23.7734 24.4688C23.7933 24.6151 23.8131 24.7614 23.8335 24.9121C23.854 25.0794 23.854 25.0794 23.875 25.25C21.6495 26.3991 19.5346 26.4792 17.1597 25.7739C16.2902 25.4639 15.5903 24.9495 14.875 24.375C14.7899 24.3102 14.7048 24.2454 14.6172 24.1787C14.3421 23.9457 14.1416 23.7449 14.0908 23.3784C14.133 22.7845 14.3266 22.4234 14.75 22C14.9137 21.8616 15.0778 21.7236 15.2422 21.5859C16.0387 20.902 16.4173 20.1056 16.75 19.125C17.0915 19.2518 17.3735 19.3739 17.6719 19.5859C18.1406 19.8203 18.3778 19.782 18.875 19.625C19.6024 19.0948 19.8886 18.2055 20.2129 17.4009C20.3383 17.0908 20.4695 16.7955 20.625 16.5Z" fill="white"/>
<path d="M31.8125 21.3359C31.9156 21.3488 32.0188 21.3617 32.125 21.375C32.5272 21.9782 32.3499 22.644 32.2791 23.3391C32.2594 23.5323 32.2412 23.7257 32.2243 23.9193C32.0232 26.1256 31.2742 28.4035 29.5571 29.9082C29.4062 30.0336 29.2543 30.158 29.1016 30.2812C28.2102 30.9861 28.2102 30.9861 27.75 32C26.5125 32 25.275 32 24 32C24 27.8725 24 27.8725 25.3125 26.5469C25.459 26.4072 25.459 26.4072 25.6084 26.2646C25.8349 26.0398 26.0171 25.82 26.2031 25.5625C26.5 25.25 26.5 25.25 26.9688 25.1328C27.1028 25.1302 27.2369 25.1277 27.375 25.125C27.4162 25.1662 27.4575 25.2075 27.5 25.25C27.4782 26.0973 27.2617 26.4963 26.6875 27.1016C26.1929 27.6183 26.1929 27.6183 25.875 28.25C25.9162 28.3325 25.9575 28.415 26 28.5C27.4254 28.2807 28.5228 27.0064 29.3418 25.9039C30.2033 24.6829 30.6644 23.3059 31.1382 21.899C31.2939 21.5174 31.3971 21.3879 31.8125 21.3359Z" fill="white"/>
<path d="M7.87495 21.375C8.17964 21.3203 8.17964 21.3203 8.49995 21.375C8.80107 21.7111 8.95076 22.0325 9.08638 22.4595C9.88011 24.8535 11.0467 27.1923 13.3906 28.4116C13.6417 28.5221 13.6417 28.5221 14 28.5C14.0412 28.3762 14.0825 28.2525 14.125 28.125C13.9129 27.8171 13.6992 27.5361 13.4609 27.25C13.3337 27.0938 13.2066 26.9376 13.0795 26.7812C13.0225 26.7123 12.9654 26.6433 12.9065 26.5723C12.533 26.1017 12.4612 25.8449 12.5 25.25C12.5618 25.1881 12.5618 25.1881 12.625 25.125C13.1765 25.1397 13.4367 25.1955 13.8598 25.5596C13.9739 25.6888 14.0856 25.8201 14.1953 25.9531C14.2542 26.0212 14.313 26.0893 14.3737 26.1595C14.4899 26.2942 14.6053 26.4298 14.7197 26.5661C14.8503 26.7208 14.9852 26.8718 15.121 27.022C15.7288 27.6937 15.901 28.2126 15.9531 29.1094C15.9671 29.3293 15.9671 29.3293 15.9814 29.5537C16.0079 30.3687 16 31.1845 16 32C14.7625 32 13.525 32 12.25 32C12.1262 31.7113 12.0025 31.4225 11.875 31.125C11.5734 30.7851 11.5734 30.7851 11.2187 30.4922C11.0476 30.3431 11.0476 30.3431 10.873 30.1909C10.6795 30.027 10.4851 29.8637 10.283 29.7104C9.65321 29.216 9.3221 28.6728 8.9687 27.9609C8.91618 27.8605 8.86365 27.76 8.80952 27.6565C8.19992 26.4651 7.93286 25.3683 7.78902 24.0391C7.77282 23.9014 7.75663 23.7637 7.73994 23.6218C7.54083 21.8762 7.54083 21.8762 7.87495 21.375Z" fill="white"/>
<path d="M16.3984 5.85938C16.5085 5.85905 16.6185 5.85873 16.7319 5.8584C17 5.875 17 5.875 17.125 6C17.2435 6.92866 16.8573 7.64788 16.3076 8.38184C15.7302 9.01942 14.9657 9.46212 14.0932 9.51807C13.9581 9.52073 13.9581 9.52073 13.8203 9.52344C12.7997 9.60097 12.016 10.5777 11.3515 11.2812C9.78664 13.1219 8.6693 15.5891 8.58541 18.022C8.58017 18.1666 8.57494 18.3112 8.56954 18.4602C8.56217 18.6849 8.56217 18.6849 8.55465 18.9141C8.54925 19.0663 8.54385 19.2184 8.53829 19.3752C8.52506 19.7501 8.5123 20.1251 8.49996 20.5C8.25777 20.5703 8.25777 20.5703 7.99996 20.625C7.6172 20.2422 7.83593 18.9876 7.83562 18.471C7.86422 15.8894 8.6902 13.127 10.5078 11.2109C10.5877 11.1001 10.6676 10.9892 10.75 10.875C10.6944 10.4892 10.6944 10.4892 10.5 10.125C10.1285 9.21695 10.1254 8.36944 10.4687 7.45312C10.8337 6.63989 10.8337 6.63989 11.25 6.375C11.5625 6.36719 11.5625 6.36719 11.875 6.5C12.5784 7.18332 12.6522 8.07103 12.75 9C12.7864 8.90187 12.8228 8.80374 12.8603 8.70264C13.3802 7.37032 13.9195 6.58542 15.25 6C15.6377 5.87568 15.9922 5.85817 16.3984 5.85938Z" fill="white"/>
<path d="M19.75 6.75009C22.8799 6.61987 25.7784 7.66666 28.125 9.75009C30.2392 11.7003 31.7191 14.2465 32.125 17.1251C32.1347 17.3955 32.1385 17.6661 32.1372 17.9366C32.1366 18.1614 32.1366 18.1614 32.136 18.3907C32.1344 18.6227 32.1344 18.6227 32.1328 18.8595C32.1322 19.017 32.1317 19.1746 32.1311 19.337C32.1296 19.7247 32.1276 20.1124 32.125 20.5001C31.8828 20.5704 31.8828 20.5704 31.625 20.6251C31.4126 20.4127 31.4813 20.1378 31.478 19.8473C31.4088 16.248 30.5336 13.2235 27.9575 10.5743C25.6703 8.40939 22.9158 7.64293 19.875 7.37509C19.8337 7.16884 19.7925 6.96259 19.75 6.75009Z" fill="white"/>
<path d="M25.625 13.25C26.8425 14.1355 27.4031 15.673 27.6987 17.1079C27.7585 17.5652 27.7739 18.0161 27.7734 18.4766C27.7735 18.5642 27.7736 18.6519 27.7737 18.7422C27.7669 19.4059 27.6818 19.9889 27.5 20.625C27.1288 20.625 26.7575 20.625 26.375 20.625C26.2445 20.1401 26.2623 19.8538 26.4297 19.3828C26.6344 18.7537 26.7588 18.1352 26.5 17.5C25.9016 17.3005 25.4291 17.2854 24.8594 17.5703C24.5 17.75 24.5 17.75 24.1563 17.7422C23.875 17.625 23.875 17.625 23.7109 17.4219C23.5901 17.0043 23.57 16.682 23.625 16.25C23.8906 16.0391 23.8906 16.0391 24.25 15.875C24.7212 15.5828 25.0856 15.3509 25.375 14.875C25.4737 14.4672 25.4737 14.4672 25.5234 14.0312C25.5433 13.8849 25.5631 13.7386 25.5835 13.5879C25.5972 13.4764 25.6109 13.3649 25.625 13.25Z" fill="white"/>
<path d="M20.25 10.7498C19.9439 11.2646 19.6783 11.4227 19.1172 11.5701C19.01 11.5935 18.9029 11.6169 18.7925 11.6409C18.4298 11.7759 18.3091 11.9126 18.125 12.2498C18.2038 12.7917 18.299 13.0542 18.7031 13.4295C19 13.7498 19 13.7498 19.0938 14.2264C19.0586 14.8045 18.7478 15.1315 18.3652 15.5418C17.8748 15.9664 17.5198 16.0291 16.875 15.9998C16.7292 15.5188 16.7894 15.2383 16.938 14.7679C17.1568 13.8219 17.0658 12.9559 16.6094 12.1048C16.5 11.8748 16.5 11.8748 16.5 11.4998C17.7825 10.9483 18.8503 10.7027 20.25 10.7498Z" fill="white"/>
<path d="M23.375 32.375C24.067 32.3719 24.759 32.3696 25.451 32.3681C25.6866 32.3675 25.9222 32.3667 26.1577 32.3656C26.4956 32.3641 26.8335 32.3633 27.1714 32.3628C27.2774 32.3621 27.3834 32.3615 27.4926 32.3608C27.7451 32.3608 27.9976 32.3672 28.25 32.375C28.375 32.5 28.375 32.5 28.3916 32.8359C28.3913 32.9726 28.391 33.1092 28.3906 33.25C28.3911 33.455 28.3911 33.455 28.3916 33.6641C28.375 34 28.375 34 28.25 34.125C27.8895 34.1361 27.5319 34.1394 27.1714 34.1372C27.0093 34.1369 27.0093 34.1369 26.844 34.1367C26.4976 34.136 26.1511 34.1344 25.8047 34.1328C25.5704 34.1322 25.3361 34.1316 25.1018 34.1311C24.5262 34.1297 23.9506 34.1276 23.375 34.125C23.375 33.5475 23.375 32.97 23.375 32.375Z" fill="white"/>
<path d="M12.2117 32.3608C12.4173 32.3609 12.623 32.3616 12.8286 32.3628C12.9907 32.3631 12.9907 32.3631 13.156 32.3634C13.5024 32.3641 13.8489 32.3656 14.1953 32.3672C14.4296 32.3678 14.6639 32.3684 14.8982 32.3689C15.4738 32.3703 16.0494 32.3725 16.625 32.375C16.625 32.9525 16.625 33.53 16.625 34.125C15.933 34.1281 15.241 34.1304 14.549 34.1319C14.3134 34.1325 14.0778 34.1334 13.8423 34.1345C13.5044 34.136 13.1665 34.1367 12.8286 34.1372C12.7226 34.1379 12.6166 34.1385 12.5074 34.1392C12.2549 34.1392 12.0024 34.1328 11.75 34.125C11.625 34 11.625 34 11.6084 33.6641C11.6087 33.5275 11.609 33.3908 11.6094 33.25C11.6091 33.1134 11.6087 32.9767 11.6084 32.836C11.634 32.3175 11.6712 32.3775 12.2117 32.3608Z" fill="white"/>
<path d="M18.625 30.375C19.6562 30.375 20.6875 30.375 21.75 30.375C21.7088 30.5812 21.6675 30.7875 21.625 31C21.2917 31.0246 20.9584 31.0478 20.625 31.0703C20.532 31.0773 20.4391 31.0843 20.3433 31.0916C19.7087 31.1329 19.1287 31.0965 18.5 31C18.5413 30.7937 18.5825 30.5875 18.625 30.375Z" fill="white"/>
</svg>
