<svg width="40" height="40" viewBox="0 0 40 40" fill="none" xmlns="http://www.w3.org/2000/svg">
<rect width="40" height="40" fill="#2E2878"/>
<g clip-path="url(#clip0_991_190)">
<path d="M9.21881 8C11.0132 8 12.8076 8 14.6563 8C14.6771 9.6287 14.6771 9.6287 14.6815 10.3122C14.6845 10.7838 14.6881 11.2553 14.6952 11.7269C14.7004 12.0703 14.7037 12.4138 14.7048 12.7573C14.7055 12.9391 14.7071 13.1208 14.7108 13.3025C14.7143 13.4739 14.7154 13.6451 14.7146 13.8165C14.7148 13.9089 14.7176 14.0012 14.7205 14.0935C14.7173 14.3437 14.712 14.4994 14.5425 14.6915C14.4128 14.7979 14.2801 14.8914 14.1407 14.9844C13.4124 15.6453 13.0728 16.6868 13.0185 17.6426C12.9901 18.7412 13.4495 19.7168 14.1849 20.5096C14.3209 20.6504 14.4612 20.7865 14.6014 20.9229C15.3552 21.6566 15.8682 22.3166 15.8948 23.4133C15.8975 23.6847 15.8958 23.956 15.8934 24.2274C15.893 24.3451 15.8928 24.4629 15.8926 24.5806C15.8919 24.857 15.8905 25.1334 15.8886 25.4098C15.8862 25.756 15.8853 26.1021 15.8842 26.4483C15.8822 27.0645 15.8791 27.6807 15.8751 28.2969C15.8087 28.2909 15.7425 28.2845 15.6762 28.278C15.6393 28.2745 15.6024 28.271 15.5644 28.2674C15.2408 28.2167 15.0339 28.0387 14.8224 27.7996C14.6353 27.5097 14.5887 27.2407 14.5935 26.9042C14.5934 26.8653 14.5934 26.8263 14.5934 26.7862C14.5935 26.6589 14.5946 26.5316 14.5957 26.4043C14.596 26.3155 14.5962 26.2267 14.5963 26.1379C14.5968 25.9052 14.5982 25.6725 14.5998 25.4397C14.6012 25.2019 14.6019 24.964 14.6026 24.7261C14.6041 24.2601 14.6065 23.7941 14.6094 23.3281C14.3465 23.3281 14.0835 23.3281 13.8126 23.3281C13.813 23.4227 13.8134 23.5174 13.8138 23.6148C13.8176 24.5053 13.8204 25.3958 13.8223 26.2863C13.8232 26.7441 13.8246 27.202 13.8267 27.6598C13.8286 28.0588 13.8298 28.4578 13.8302 28.8569C13.8304 29.0682 13.831 29.2795 13.8324 29.4908C13.8337 29.6896 13.834 29.8885 13.8338 30.0874C13.8338 30.1604 13.8342 30.2334 13.8349 30.3064C13.8358 30.4061 13.8356 30.5057 13.8351 30.6054C13.8353 30.6612 13.8355 30.717 13.8356 30.7744C13.8076 30.9533 13.7534 31.0305 13.6251 31.1562C13.4385 31.2105 13.3425 31.2244 13.1651 31.1416C13.0175 31.0278 12.9535 30.9643 12.9219 30.7812C12.9178 30.6955 12.9162 30.6096 12.9163 30.5238C12.9162 30.4453 12.9162 30.4453 12.9161 30.3653C12.9164 30.2795 12.9164 30.2795 12.9166 30.192C12.9166 30.1316 12.9166 30.0712 12.9166 30.009C12.9166 29.8436 12.9169 29.6782 12.9172 29.5128C12.9175 29.3399 12.9175 29.167 12.9176 28.9941C12.9177 28.6667 12.9181 28.3393 12.9186 28.0119C12.9191 27.6392 12.9193 27.2665 12.9196 26.8938C12.9201 26.1271 12.9209 25.3604 12.9219 24.5938C12.6744 24.5938 12.4269 24.5938 12.1719 24.5938C12.1724 24.726 12.1724 24.726 12.1729 24.8609C12.1757 25.6907 12.1778 26.5204 12.1792 27.3502C12.1799 27.7768 12.1809 28.2035 12.1825 28.6301C12.1839 29.0019 12.1849 29.3737 12.1852 29.7456C12.1853 29.9425 12.1858 30.1394 12.1868 30.3363C12.1878 30.5216 12.1881 30.7069 12.1878 30.8922C12.1879 30.9603 12.1882 31.0283 12.1887 31.0963C12.1894 31.1892 12.1891 31.2821 12.1888 31.375C12.189 31.427 12.1891 31.4789 12.1892 31.5325C12.164 31.7357 12.0804 31.8572 11.9376 32C11.7952 32.0236 11.6583 32.0211 11.5157 32C11.3736 31.897 11.3368 31.8383 11.2813 31.6719C11.277 31.5767 11.2756 31.4815 11.2757 31.3862C11.2756 31.2966 11.2756 31.2966 11.2755 31.2052C11.2756 31.1388 11.2758 31.0725 11.276 31.0062C11.276 30.9364 11.276 30.8666 11.276 30.7969C11.276 30.6074 11.2762 30.4179 11.2766 30.2283C11.2768 30.0303 11.2769 29.8323 11.2769 29.6343C11.2771 29.2593 11.2775 28.8843 11.2779 28.5093C11.2785 28.0824 11.2787 27.6554 11.2789 27.2285C11.2794 26.3503 11.2803 25.472 11.2813 24.5938C11.0183 24.5938 10.7554 24.5938 10.4844 24.5938C10.4848 24.6732 10.4853 24.7526 10.4857 24.8345C10.4895 25.5822 10.4923 26.3299 10.4941 27.0776C10.4951 27.4621 10.4964 27.8465 10.4986 28.2309C10.5004 28.5659 10.5017 28.901 10.5021 29.236C10.5023 29.4135 10.5029 29.5909 10.5043 29.7683C10.5055 29.9353 10.5059 30.1022 10.5056 30.2692C10.5057 30.3598 10.5067 30.4503 10.5078 30.5409C10.5075 30.5948 10.5072 30.6487 10.507 30.7042C10.5072 30.751 10.5073 30.7979 10.5075 30.8461C10.4778 31.004 10.4222 31.0584 10.2969 31.1562C10.1125 31.2065 10.0131 31.2228 9.83697 31.1445C9.73443 31.0625 9.73443 31.0625 9.64068 30.9219C9.62915 30.8057 9.62915 30.8057 9.62941 30.6647C9.62928 30.6113 9.62915 30.5578 9.62902 30.5028C9.62936 30.4441 9.62969 30.3855 9.63004 30.325C9.63003 30.2633 9.63001 30.2015 9.63 30.1379C9.62997 29.9685 9.63052 29.7992 9.63118 29.6298C9.63176 29.4528 9.63182 29.2758 9.63193 29.0988C9.63222 28.7637 9.63299 28.4285 9.63393 28.0933C9.63498 27.7117 9.63549 27.3302 9.63597 26.9486C9.63695 26.1636 9.63861 25.3787 9.64068 24.5938C9.37771 24.5938 9.11475 24.5938 8.84381 24.5938C8.84433 24.652 8.84485 24.7102 8.84539 24.7701C8.85013 25.3185 8.85365 25.8668 8.85595 26.4151C8.85718 26.697 8.85883 26.9789 8.86149 27.2609C8.86403 27.5329 8.86544 27.8049 8.86605 28.0769C8.86648 28.1807 8.86732 28.2845 8.86859 28.3884C8.87029 28.5337 8.87052 28.679 8.87042 28.8243C8.87126 28.8673 8.8721 28.9103 8.87297 28.9546C8.87126 29.1657 8.86605 29.2528 8.7321 29.4241C8.60109 29.5218 8.53809 29.5625 8.37506 29.5625C8.223 29.4999 8.11641 29.4445 8.00006 29.3281C7.98747 29.2123 7.98747 29.2123 7.98626 29.0633C7.98525 28.9788 7.98525 28.9788 7.98423 28.8926C7.98396 28.8298 7.98371 28.7669 7.98346 28.7041C7.98288 28.6382 7.98225 28.5723 7.9816 28.5064C7.97962 28.2892 7.97865 28.072 7.97772 27.8549C7.97734 27.7799 7.97695 27.7049 7.97656 27.6299C7.97477 27.2768 7.97344 26.9237 7.97266 26.5706C7.97175 26.1648 7.9693 25.7592 7.96549 25.3535C7.96264 25.039 7.96127 24.7245 7.96096 24.41C7.96074 24.2226 7.95993 24.0354 7.95754 23.8481C7.94806 23.0627 7.95234 22.3585 8.32546 21.6442C8.41359 21.4712 8.48653 21.2916 8.56219 21.1129C8.59249 21.0433 8.62288 20.9737 8.65338 20.9042C8.6683 20.8701 8.68323 20.836 8.69861 20.8009C8.72939 20.7309 8.76029 20.661 8.7913 20.5911C8.83742 20.4869 8.88295 20.3824 8.9284 20.278C8.94212 20.2474 8.95584 20.2169 8.96998 20.1854C9.14324 19.7841 9.1859 19.3805 9.18499 18.9469C9.18526 18.8998 9.18553 18.8527 9.18581 18.8042C9.1866 18.6476 9.18674 18.491 9.18688 18.3344C9.18732 18.2216 9.18779 18.1089 9.18831 17.9961C9.18945 17.7225 9.19018 17.4489 9.19071 17.1753C9.19136 16.8567 9.19253 16.5382 9.19373 16.2196C9.19586 15.6516 9.19757 15.0835 9.19903 14.5155C9.20045 13.964 9.20206 13.4124 9.20393 12.8609C9.20411 12.8093 9.20411 12.8093 9.20428 12.7567C9.2053 12.4575 9.20633 12.1584 9.20736 11.8592C9.21176 10.5728 9.21521 9.28641 9.21881 8Z" fill="white"/>
<path d="M28.2675 7.98242C28.4238 7.98569 28.4714 7.99063 28.6015 8.08496C28.7228 8.26181 28.7245 8.40478 28.7243 8.61375C28.7244 8.70337 28.7244 8.70337 28.7245 8.79481C28.7244 8.86115 28.7242 8.9275 28.724 8.99384C28.724 9.06359 28.724 9.13335 28.7241 9.2031C28.7241 9.39262 28.7238 9.58214 28.7235 9.77166C28.7232 9.96967 28.7231 10.1677 28.7231 10.3657C28.7229 10.7407 28.7226 11.1157 28.7221 11.4907C28.7216 11.9176 28.7213 12.3446 28.7211 12.7715C28.7206 13.6497 28.7197 14.528 28.7187 15.4062C28.9817 15.4062 29.2446 15.4062 29.5156 15.4062C29.5152 15.3268 29.5148 15.2473 29.5143 15.1655C29.5105 14.4178 29.5077 13.6701 29.5059 12.9224C29.5049 12.5379 29.5036 12.1535 29.5014 11.7691C29.4996 11.4341 29.4984 11.099 29.4979 10.764C29.4977 10.5865 29.4971 10.4091 29.4958 10.2317C29.4945 10.0647 29.4941 9.89775 29.4944 9.73077C29.4943 9.64022 29.4933 9.54968 29.4923 9.45914C29.4925 9.40525 29.4928 9.35135 29.493 9.29582C29.4929 9.24898 29.4927 9.20214 29.4925 9.15388C29.5222 8.99596 29.5778 8.94156 29.7031 8.84375C29.8875 8.79346 29.9869 8.7772 30.163 8.85547C30.2656 8.9375 30.2656 8.9375 30.3593 9.07812C30.3709 9.19426 30.3709 9.19426 30.3706 9.33528C30.3707 9.38872 30.3709 9.44215 30.371 9.49721C30.3705 9.58521 30.3705 9.58521 30.37 9.67499C30.37 9.73673 30.37 9.79848 30.37 9.86209C30.37 10.0315 30.3695 10.2008 30.3688 10.3702C30.3683 10.5472 30.3682 10.7242 30.3681 10.9012C30.3678 11.2363 30.367 11.5715 30.3661 11.9067C30.365 12.2883 30.3645 12.6698 30.3641 13.0514C30.3631 13.8364 30.3614 14.6213 30.3593 15.4062C30.6223 15.4062 30.8853 15.4062 31.1562 15.4062C31.1557 15.348 31.1552 15.2898 31.1546 15.2299C31.1499 14.6815 31.1464 14.1332 31.1441 13.5849C31.1428 13.303 31.1412 13.0211 31.1385 12.7391C31.136 12.4671 31.1346 12.1951 31.134 11.9231C31.1335 11.8193 31.1327 11.7154 31.1314 11.6116C31.1297 11.4663 31.1295 11.321 31.1296 11.1757C31.1288 11.1327 31.1279 11.0897 31.127 11.0454C31.1288 10.8343 31.134 10.7472 31.2679 10.5759C31.3989 10.4782 31.4619 10.4375 31.625 10.4375C31.777 10.5001 31.8836 10.5555 32 10.6719C32.0125 10.7877 32.0125 10.7877 32.0138 10.9367C32.0144 10.993 32.0151 11.0494 32.0158 11.1074C32.0161 11.1703 32.0163 11.2331 32.0166 11.2959C32.0171 11.3618 32.0178 11.4277 32.0184 11.4936C32.0204 11.7108 32.0214 11.928 32.0223 12.1451C32.0227 12.2201 32.0231 12.2951 32.0235 12.3701C32.0252 12.7232 32.0266 13.0763 32.0274 13.4294C32.0283 13.8352 32.0307 14.2408 32.0345 14.6465C32.0374 14.961 32.0387 15.2755 32.0391 15.59C32.0393 15.7774 32.0401 15.9646 32.0425 16.1519C32.052 16.9373 32.0477 17.6415 31.6746 18.3558C31.5864 18.5288 31.5135 18.7084 31.4378 18.8871C31.4075 18.9567 31.3771 19.0263 31.3466 19.0958C31.3317 19.1299 31.3168 19.164 31.3014 19.1991C31.2706 19.2691 31.2397 19.339 31.2087 19.4089C31.1626 19.5131 31.1171 19.6176 31.0716 19.722C31.0579 19.7526 31.0442 19.7831 31.03 19.8146C30.8568 20.2159 30.8141 20.6195 30.815 21.0531C30.8148 21.1002 30.8145 21.1473 30.8142 21.1958C30.8134 21.3524 30.8133 21.509 30.8131 21.6656C30.8127 21.7784 30.8122 21.8911 30.8117 22.0039C30.8106 22.2775 30.8098 22.5511 30.8093 22.8247C30.8087 23.1433 30.8075 23.4618 30.8063 23.7804C30.8042 24.3484 30.8024 24.9165 30.801 25.4845C30.7996 26.036 30.798 26.5876 30.7961 27.1391C30.796 27.1735 30.7959 27.2079 30.7957 27.2433C30.7947 27.5425 30.7937 27.8416 30.7927 28.1408C30.7883 29.4272 30.7848 30.7136 30.7812 32C28.9868 32 27.1925 32 25.3437 32C25.321 29.2602 25.321 29.2602 25.3162 28.1118C25.3151 27.8493 25.314 27.5869 25.3128 27.3245C25.3127 27.2916 25.3125 27.2587 25.3124 27.2249C25.3099 26.6947 25.3055 26.1646 25.3003 25.6344C25.295 25.0899 25.292 24.5454 25.2908 24.0009C25.2901 23.6952 25.2883 23.3896 25.2842 23.0839C25.2804 22.7959 25.2792 22.5081 25.2801 22.2201C25.2799 22.1146 25.2788 22.0092 25.2767 21.9038C25.2595 21.0246 25.2595 21.0246 25.5374 20.725C25.6097 20.6579 25.6834 20.5961 25.7614 20.5357C26.4784 19.9721 26.8327 19.0189 26.9622 18.1459C27.0572 17.2046 26.7789 16.3607 26.3281 15.5469C26.3034 15.518 26.2787 15.4891 26.2533 15.4593C26.1692 15.3317 26.1697 15.252 26.1693 15.0999C26.1688 15.0472 26.1684 14.9944 26.1679 14.94C26.1682 14.8535 26.1682 14.8535 26.1685 14.7652C26.1682 14.7043 26.1679 14.6434 26.1675 14.5806C26.1667 14.4136 26.1668 14.2467 26.167 14.0797C26.1672 13.9403 26.1669 13.8008 26.1666 13.6614C26.1659 13.3324 26.166 13.0034 26.1666 12.6745C26.1671 12.3352 26.1664 11.9959 26.1652 11.6566C26.1641 11.3652 26.1638 11.0738 26.1641 10.7824C26.1643 10.6084 26.1641 10.4344 26.1633 10.2604C26.1625 10.0664 26.1631 9.87239 26.1639 9.67836C26.1635 9.62076 26.163 9.56316 26.1626 9.50382C26.163 9.45092 26.1635 9.39801 26.164 9.34351C26.164 9.29765 26.164 9.25179 26.164 9.20454C26.1945 9.04027 26.2584 8.96161 26.375 8.84375C26.5615 8.78948 26.6575 8.77562 26.8349 8.8584C26.9825 8.97223 27.0465 9.03574 27.0781 9.21875C27.0822 9.30449 27.0838 9.39036 27.0837 9.4762C27.0838 9.52852 27.0838 9.58084 27.0839 9.63475C27.0837 9.72052 27.0837 9.72052 27.0834 9.80803C27.0834 9.86841 27.0834 9.92878 27.0834 9.99099C27.0834 10.1564 27.0832 10.3218 27.0828 10.4872C27.0825 10.6601 27.0825 10.833 27.0825 11.0059C27.0823 11.3333 27.0819 11.6607 27.0815 11.9881C27.0809 12.3608 27.0807 12.7335 27.0804 13.1062C27.08 13.8729 27.0791 14.6396 27.0781 15.4062C27.3256 15.4062 27.5731 15.4062 27.8281 15.4062C27.8278 15.3181 27.8275 15.2299 27.8271 15.1391C27.8243 14.3093 27.8222 13.4796 27.8208 12.6498C27.8201 12.2232 27.8191 11.7965 27.8175 11.3699C27.8161 10.9981 27.8152 10.6263 27.8149 10.2544C27.8147 10.0575 27.8142 9.86064 27.8132 9.66375C27.8123 9.47841 27.812 9.29309 27.8122 9.10776C27.8121 9.03975 27.8119 8.97174 27.8113 8.90374C27.8106 8.81083 27.8109 8.71793 27.8112 8.62502C27.811 8.57304 27.8109 8.52106 27.8108 8.46751C27.8452 8.18998 27.9802 7.9872 28.2675 7.98242Z" fill="white"/>
<path d="M18.6875 15.1252C18.887 15.2859 19.0691 15.4601 19.25 15.6409C19.2807 15.6712 19.3114 15.7016 19.343 15.7328C19.5476 15.9353 19.7509 16.1391 19.9531 16.344C20.1243 16.2724 20.2286 16.1706 20.3561 16.0373C20.4184 15.9733 20.4184 15.9733 20.4818 15.9081C20.5679 15.819 20.6534 15.7296 20.7389 15.64C21.3621 15.0015 22.0968 14.62 22.9937 14.5963C23.3896 14.5917 23.7476 14.6201 24.125 14.7502C24.1652 14.7633 24.2054 14.7763 24.2468 14.7898C25.0216 15.0676 25.6064 15.6778 25.9648 16.4026C26.3418 17.2634 26.3144 18.136 25.9811 18.9985C25.5742 19.8889 24.7514 20.5585 24.0675 21.2391C23.9256 21.3804 23.784 21.522 23.6424 21.6635C23.3752 21.9304 23.1077 22.1971 22.8401 22.4637C22.5351 22.7677 22.2303 23.072 21.9256 23.3762C21.2997 24.0012 20.6734 24.6258 20.0469 25.2502C19.8786 25.1788 19.7706 25.0795 19.6418 24.9508C19.5983 24.9076 19.5548 24.8644 19.51 24.8198C19.4621 24.7718 19.4143 24.7237 19.3664 24.6757C19.3157 24.6251 19.2651 24.5746 19.2144 24.5241C19.0767 24.3869 18.9393 24.2493 18.8021 24.1118C18.658 23.9675 18.5138 23.8235 18.3696 23.6794C18.1272 23.4372 17.8849 23.1947 17.6428 22.9521C17.3637 22.6726 17.0843 22.3933 16.8047 22.1142C16.5642 21.8741 16.3239 21.6339 16.0837 21.3935C15.9405 21.2501 15.7972 21.1068 15.6538 20.9637C15.5186 20.8287 15.3836 20.6936 15.2489 20.5583C15.1997 20.509 15.1504 20.4597 15.101 20.4106C14.7093 20.0204 14.3221 19.6238 14.0791 19.1213C14.0635 19.0894 14.048 19.0575 14.032 19.0246C13.6952 18.3034 13.6619 17.4751 13.9062 16.719C14.239 15.8828 14.774 15.2405 15.6003 14.8541C16.6019 14.4285 17.78 14.5075 18.6875 15.1252ZM18.7812 17.5627C18.7812 17.9649 18.7812 18.3671 18.7812 18.7815C18.3791 18.7815 17.9769 18.7815 17.5625 18.7815C17.5625 19.5859 17.5625 20.3902 17.5625 21.219C17.9647 21.219 18.3669 21.219 18.7812 21.219C18.7812 21.6212 18.7812 22.0234 18.7812 22.4377C19.5856 22.4377 20.39 22.4377 21.2188 22.4377C21.2188 22.0355 21.2188 21.6334 21.2188 21.219C21.6209 21.219 22.0231 21.219 22.4375 21.219C22.4375 20.4146 22.4375 19.6102 22.4375 18.7815C22.0353 18.7815 21.6331 18.7815 21.2188 18.7815C21.2188 18.3793 21.2188 17.9771 21.2188 17.5627C20.4144 17.5627 19.61 17.5627 18.7812 17.5627Z" fill="white"/>
<path d="M19.5781 18.3125C19.8566 18.3125 20.135 18.3125 20.4219 18.3125C20.4219 18.7302 20.4219 19.1478 20.4219 19.5781C20.8395 19.5781 21.2572 19.5781 21.6875 19.5781C21.6875 19.8566 21.6875 20.135 21.6875 20.4219C21.2698 20.4219 20.8522 20.4219 20.4219 20.4219C20.4219 20.8395 20.4219 21.2572 20.4219 21.6875C20.1434 21.6875 19.865 21.6875 19.5781 21.6875C19.5781 21.2698 19.5781 20.8522 19.5781 20.4219C19.1605 20.4219 18.7428 20.4219 18.3125 20.4219C18.3125 20.1434 18.3125 19.865 18.3125 19.5781C18.7302 19.5781 19.1478 19.5781 19.5781 19.5781C19.5781 19.1605 19.5781 18.7428 19.5781 18.3125Z" fill="white"/>
<path d="M24.125 11.7031C24.6225 11.7584 24.8579 11.8388 25.1777 12.2004C25.374 12.5046 25.4109 12.7818 25.4044 13.1343C25.4042 13.1754 25.404 13.2165 25.4038 13.2588C25.403 13.3887 25.4012 13.5185 25.3994 13.6484C25.3987 13.7371 25.3981 13.8257 25.3975 13.9143C25.3959 14.1304 25.3935 14.3464 25.3906 14.5625C25.3464 14.5381 25.3022 14.5138 25.2566 14.4887C25.1958 14.4557 25.135 14.4227 25.0742 14.3896C25.0454 14.3737 25.0166 14.3578 24.9869 14.3414C24.7043 14.1887 24.4267 14.0788 24.125 13.9531C24.125 13.2106 24.125 12.4681 24.125 11.7031Z" fill="white"/>
</g>
<defs>
<clipPath id="clip0_991_190">
<rect width="24" height="24" fill="white" transform="translate(8 8)"/>
</clipPath>
</defs>
</svg>
