<svg width="40" height="40" viewBox="0 0 40 40" fill="none" xmlns="http://www.w3.org/2000/svg">
<rect width="40" height="40" fill="#782849"/>
<g clip-path="url(#clip0_991_210)">
<path d="M24.9685 9.96875C25.6492 9.96875 26.3298 9.96875 27.031 9.96875C27.031 10.9588 27.031 11.9488 27.031 12.9688C28.021 12.9688 29.011 12.9688 30.031 12.9688C30.031 13.6494 30.031 14.33 30.031 15.0313C29.041 15.0313 28.051 15.0313 27.031 15.0313C27.031 16.7019 27.031 18.3725 27.031 20.0938C27.1857 20.1092 27.3404 20.1247 27.4998 20.1406C27.6358 20.1745 27.7634 20.2098 27.8953 20.2549C27.9487 20.273 27.9487 20.273 28.0031 20.2914C28.8477 20.592 29.5697 21.0746 30.2185 21.6875C30.2537 21.7196 30.2889 21.7518 30.3251 21.7849C30.635 22.0786 30.8739 22.4116 31.1092 22.7656C31.1386 22.8094 31.1681 22.8531 31.1985 22.8982C32.0106 24.1902 32.2328 25.8972 31.8984 27.3773C31.8061 27.7424 31.6824 28.093 31.531 28.4375C31.5177 28.4682 31.5045 28.4988 31.4908 28.5304C31.0247 29.5862 30.2193 30.5081 29.2342 31.1094C29.1839 31.1414 29.1336 31.1734 29.0818 31.2064C27.7758 32.0015 26.1122 32.2351 24.6225 31.8986C24.2574 31.8063 23.9068 31.6827 23.5623 31.5313C23.5316 31.518 23.5009 31.5047 23.4694 31.491C22.0586 30.8682 20.9474 29.6693 20.3808 28.2408C20.289 27.9971 20.2113 27.7505 20.1404 27.5C20.1244 27.4448 20.1084 27.3895 20.0919 27.3326C19.726 25.784 20.0673 24.0895 20.8931 22.7497C21.1413 22.3777 21.4246 22.0555 21.7342 21.7344C21.7648 21.7007 21.7955 21.6671 21.8272 21.6324C22.4909 20.9247 23.4349 20.4472 24.3592 20.1875C24.3982 20.1761 24.4373 20.1647 24.4776 20.1529C24.651 20.1054 24.7855 20.0938 24.9685 20.0938C24.9685 18.4231 24.9685 16.7525 24.9685 15.0313C23.9785 15.0313 22.9885 15.0313 21.9685 15.0313C21.9685 14.3506 21.9685 13.67 21.9685 12.9688C22.9585 12.9688 23.9485 12.9688 24.9685 12.9688C24.9685 11.9788 24.9685 10.9888 24.9685 9.96875ZM23.3279 23.0469C23.2922 23.0781 23.2565 23.1094 23.2197 23.1415C22.5506 23.7665 22.0553 24.7537 22.0154 25.6719C22.013 25.7188 22.0106 25.7657 22.0081 25.814C21.9793 26.8787 22.3421 27.871 23.0467 28.6719C23.0935 28.7254 23.0935 28.7254 23.1413 28.7801C23.7663 29.4491 24.7535 29.9445 25.6717 29.9844C25.7185 29.9868 25.7654 29.9892 25.8137 29.9917C26.8784 30.0205 27.8707 29.6577 28.6717 28.9531C28.7074 28.9219 28.7431 28.8906 28.7799 28.8585C29.4489 28.2335 29.9442 27.2463 29.9842 26.3281C29.9866 26.2812 29.989 26.2343 29.9915 26.186C30.0203 25.1213 29.6574 24.129 28.9529 23.3281C28.9217 23.2924 28.8904 23.2567 28.8582 23.2199C28.2332 22.5509 27.2461 22.0555 26.3279 22.0156C26.281 22.0132 26.2341 22.0108 26.1858 22.0083C25.1211 21.9795 24.1288 22.3423 23.3279 23.0469Z" fill="white"/>
<path d="M17.7802 9.26999C18.8132 10.1518 19.4895 11.1949 19.8592 12.5002C19.8752 12.5554 19.8912 12.6106 19.9077 12.6675C20.259 14.1544 19.9549 15.7831 19.2029 17.0939C18.9451 17.5017 18.6458 17.8706 18.3123 18.2189C18.2643 18.2714 18.2643 18.2714 18.2152 18.3249C17.591 18.9849 16.7503 19.4547 15.8953 19.7453C15.8624 19.7565 15.8296 19.7677 15.7957 19.7793C15.5326 19.8624 15.3176 19.8778 15.031 19.9064C15.0465 21.9328 15.062 23.9592 15.0779 26.047C15.5729 25.552 16.0679 25.057 16.5779 24.547C16.7887 24.7277 16.9898 24.9054 17.1842 25.1018C17.2209 25.1387 17.2209 25.1387 17.2584 25.1763C17.3354 25.2535 17.4122 25.3309 17.489 25.4084C17.5417 25.4613 17.5944 25.5142 17.6472 25.5671C17.7752 25.6957 17.9032 25.8245 18.031 25.9533C17.9661 26.0993 17.8912 26.1985 17.7783 26.311C17.7454 26.344 17.7126 26.377 17.6787 26.411C17.6247 26.4646 17.6247 26.4646 17.5695 26.5192C17.5315 26.5572 17.4936 26.5952 17.4545 26.6343C17.3289 26.7598 17.203 26.885 17.0771 27.0102C16.9899 27.0971 16.9029 27.1841 16.8158 27.271C16.6099 27.4766 16.4039 27.6819 16.1977 27.8871C15.963 28.1208 15.7285 28.3547 15.4941 28.5887C15.0119 29.0699 14.5294 29.5508 14.0467 30.0314C13.9007 29.9665 13.8015 29.8916 13.6889 29.7787C13.6559 29.7458 13.6229 29.713 13.5889 29.6791C13.5532 29.643 13.5175 29.607 13.4807 29.5699C13.4238 29.5129 13.4238 29.5129 13.3657 29.4548C13.2401 29.3293 13.115 29.2033 12.9898 29.0774C12.9028 28.9903 12.8159 28.9032 12.7289 28.8161C12.5234 28.6103 12.3181 28.4042 12.1128 28.1981C11.8792 27.9634 11.6452 27.7289 11.4112 27.4945C10.93 27.0123 10.4492 26.5298 9.96854 26.047C10.0316 25.9164 10.0902 25.8201 10.1934 25.7178C10.2197 25.6915 10.246 25.6652 10.273 25.6382C10.3012 25.6104 10.3295 25.5827 10.3586 25.5541C10.3876 25.5252 10.4166 25.4964 10.4464 25.4666C10.5389 25.3747 10.6316 25.2831 10.7244 25.1916C10.7872 25.1292 10.85 25.0668 10.9128 25.0044C11.0666 24.8517 11.2206 24.6993 11.3748 24.547C11.9201 25.0145 12.4138 25.5392 12.9217 26.047C12.9371 24.0206 12.9526 21.9942 12.9685 19.9064C12.8293 19.8909 12.6901 19.8755 12.5467 19.8595C11.4812 19.6083 10.5668 19.065 9.78104 18.3127C9.72856 18.2646 9.72856 18.2646 9.67502 18.2156C8.71615 17.3086 8.06 15.9117 7.99149 14.5901C7.95956 12.7319 8.35988 11.1568 9.66823 9.7793C10.4631 8.96545 11.4101 8.44938 12.4998 8.14078C12.555 8.12477 12.6102 8.10876 12.6671 8.09226C14.4093 7.68065 16.4003 8.13813 17.7802 9.26999ZM11.3279 11.047C11.2922 11.0783 11.2565 11.1095 11.2197 11.1417C10.5506 11.7667 10.0553 12.7539 10.0154 13.672C10.013 13.7189 10.0106 13.7658 10.0081 13.8141C9.97931 14.8788 10.3421 15.8711 11.0467 16.672C11.0935 16.7256 11.0935 16.7256 11.1413 16.7802C11.7663 17.4493 12.7535 17.9446 13.6717 17.9845C13.7186 17.987 13.7654 17.9894 13.8138 17.9919C14.8784 18.0206 15.8707 17.6578 16.6717 16.9533C16.7074 16.922 16.7431 16.8908 16.7799 16.8586C17.4489 16.2336 17.9442 15.2465 17.9842 14.3283C17.9866 14.2814 17.989 14.2345 17.9915 14.1862C18.0203 13.1215 17.6575 12.1292 16.9529 11.3283C16.9217 11.2926 16.8904 11.2569 16.8582 11.2201C16.2333 10.551 15.2461 10.0557 14.3279 10.0158C14.281 10.0134 14.2341 10.0109 14.1858 10.0085C13.1211 9.97968 12.1288 10.3425 11.3279 11.047Z" fill="white"/>
</g>
<defs>
<clipPath id="clip0_991_210">
<rect width="24" height="24" fill="white" transform="translate(8 8)"/>
</clipPath>
</defs>
</svg>
