<svg width="64" height="64" viewBox="0 0 64 64" fill="none" xmlns="http://www.w3.org/2000/svg">
<rect width="64" height="64" fill="#2E2878"/>
<g clip-path="url(#clip0_991_1368)">
<path d="M41.9371 11.9375C43.2983 11.9375 44.6596 11.9375 46.0621 11.9375C46.0621 13.9175 46.0621 15.8975 46.0621 17.9375C48.0421 17.9375 50.0221 17.9375 52.0621 17.9375C52.0621 19.2988 52.0621 20.66 52.0621 22.0625C50.0821 22.0625 48.1021 22.0625 46.0621 22.0625C46.0621 25.4038 46.0621 28.745 46.0621 32.1875C46.3714 32.2184 46.6808 32.2494 46.9996 32.2813C47.2716 32.3491 47.5267 32.4197 47.7906 32.5098C47.8974 32.546 47.8974 32.546 48.0063 32.5829C49.6955 33.1839 51.1393 34.1491 52.4371 35.375C52.5074 35.4393 52.5777 35.5036 52.6502 35.5698C53.2701 36.1571 53.7479 36.8232 54.2183 37.5313C54.2773 37.6187 54.3363 37.7062 54.397 37.7964C56.0213 40.3804 56.4655 43.7943 55.7968 46.7546C55.6121 47.4848 55.3649 48.1859 55.0621 48.875C55.0355 48.9363 55.0089 48.9977 54.9816 49.0609C54.0494 51.1724 52.4386 53.0163 50.4683 54.2188C50.3678 54.2828 50.2672 54.3469 50.1636 54.4128C47.5517 56.003 44.2243 56.4703 41.245 55.7972C40.5148 55.6126 39.8137 55.3653 39.1246 55.0625C39.0632 55.0359 39.0019 55.0094 38.9387 54.982C36.1173 53.7365 33.8948 51.3386 32.7616 48.4816C32.5779 47.9942 32.4227 47.501 32.2808 47C32.2488 46.8895 32.2168 46.7791 32.1838 46.6653C31.452 43.568 32.1347 40.1789 33.7863 37.4994C34.2826 36.7554 34.8493 36.1109 35.4683 35.4688C35.5297 35.4014 35.5911 35.3341 35.6543 35.2648C36.9818 33.8494 38.8697 32.8944 40.7183 32.375C40.7965 32.3522 40.8747 32.3293 40.9552 32.3058C41.3019 32.2109 41.571 32.1875 41.9371 32.1875C41.9371 28.8463 41.9371 25.505 41.9371 22.0625C39.9571 22.0625 37.9771 22.0625 35.9371 22.0625C35.9371 20.7013 35.9371 19.34 35.9371 17.9375C37.9171 17.9375 39.8971 17.9375 41.9371 17.9375C41.9371 15.9575 41.9371 13.9775 41.9371 11.9375ZM38.6558 38.0938C38.5844 38.1562 38.513 38.2187 38.4394 38.2831C37.1013 39.5331 36.1106 41.5074 36.0308 43.3438C36.026 43.4375 36.0211 43.5313 36.0162 43.6279C35.9586 45.7573 36.6842 47.7419 38.0933 49.3438C38.187 49.4509 38.187 49.4509 38.2826 49.5602C39.5326 50.8983 41.5069 51.8889 43.3433 51.9688C43.4371 51.9736 43.5309 51.9784 43.6275 51.9834C45.7569 52.041 47.7415 51.3153 49.3433 49.9063C49.4147 49.8438 49.4861 49.7813 49.5597 49.7169C50.8978 48.4669 51.8885 46.4926 51.9683 44.6563C51.9731 44.5625 51.978 44.4687 51.983 44.3721C52.0405 42.2427 51.3149 40.2581 49.9058 38.6563C49.8433 38.5848 49.7808 38.5134 49.7165 38.4398C48.4665 37.1017 46.4922 36.1111 44.6558 36.0313C44.562 36.0264 44.4682 36.0216 44.3716 36.0166C42.2422 35.9591 40.2576 36.6847 38.6558 38.0938Z" fill="white"/>
<path d="M27.5604 10.5395C29.6265 12.3031 30.979 14.3892 31.7183 16.9998C31.7504 17.1103 31.7824 17.2207 31.8154 17.3345C32.5179 20.3082 31.9099 23.5657 30.4058 26.1873C29.8902 27.0029 29.2916 27.7406 28.6246 28.4373C28.5285 28.5423 28.5285 28.5423 28.4305 28.6494C27.182 29.9693 25.5007 30.9089 23.7906 31.4901C23.7249 31.5125 23.6592 31.535 23.5915 31.5581C23.0653 31.7244 22.6351 31.755 22.0621 31.8123C22.093 35.8651 22.124 39.918 22.1558 44.0936C23.1458 43.1036 24.1358 42.1136 25.1558 41.0936C25.5775 41.455 25.9796 41.8104 26.3684 42.2032C26.4419 42.2769 26.4419 42.2769 26.5169 42.3521C26.6708 42.5066 26.8245 42.6614 26.9781 42.8162C27.0835 42.9221 27.1889 43.0279 27.2943 43.1337C27.5505 43.3909 27.8064 43.6484 28.0621 43.9061C27.9323 44.1981 27.7824 44.3965 27.5566 44.6216C27.4909 44.6876 27.4252 44.7536 27.3574 44.8215C27.2493 44.9287 27.2493 44.9287 27.139 45.0379C27.0631 45.1139 26.9872 45.1898 26.9089 45.2681C26.6578 45.5191 26.4059 45.7695 26.1541 46.0198C25.9799 46.1937 25.8057 46.3676 25.6315 46.5416C25.2199 46.9527 24.8078 47.3633 24.3954 47.7737C23.926 48.2411 23.4571 48.709 22.9882 49.1769C22.0238 50.1393 21.0588 51.101 20.0933 52.0623C19.8013 51.9325 19.6029 51.7827 19.3778 51.5569C19.3118 51.4911 19.2458 51.4254 19.1779 51.3577C19.1065 51.2856 19.035 51.2135 18.9615 51.1392C18.8475 51.0254 18.8475 51.0254 18.7313 50.9092C18.4803 50.658 18.2299 50.4062 17.9796 50.1544C17.8057 49.9801 17.6318 49.806 17.4578 49.6318C17.0467 49.2201 16.6361 48.808 16.2257 48.3957C15.7583 47.9262 15.2904 47.4573 14.8225 46.9884C13.8601 46.0241 12.8984 45.059 11.9371 44.0936C12.0632 43.8323 12.1803 43.6397 12.3868 43.435C12.4394 43.3825 12.4919 43.33 12.546 43.2759C12.6025 43.2204 12.6589 43.1649 12.7171 43.1077C12.7751 43.05 12.8331 42.9923 12.8929 42.9328C13.0777 42.749 13.2633 42.5658 13.4488 42.3826C13.5745 42.2579 13.7001 42.1332 13.8256 42.0084C14.1331 41.7029 14.4412 41.3981 14.7496 41.0936C15.8402 42.0284 16.8276 43.0778 17.8433 44.0936C17.8743 40.0408 17.9052 35.988 17.9371 31.8123C17.6586 31.7814 17.3802 31.7505 17.0933 31.7186C14.9623 31.2161 13.1336 30.1294 11.5621 28.6248C11.4571 28.5288 11.4571 28.5288 11.35 28.4307C9.4323 26.6167 8.12 23.823 7.98298 21.1797C7.91912 17.4634 8.71977 14.313 11.3365 11.5581C12.9261 9.93042 14.8201 8.89828 16.9996 8.28108C17.11 8.24905 17.2205 8.21703 17.3343 8.18403C20.8186 7.36082 24.8005 8.27576 27.5604 10.5395ZM14.6558 14.0936C14.5844 14.1561 14.513 14.2185 14.4394 14.2829C13.1013 15.5329 12.1107 17.5072 12.0308 19.3436C12.026 19.4374 12.0212 19.5311 12.0162 19.6278C11.9586 21.7571 12.6842 23.7417 14.0933 25.3436C14.187 25.4507 14.187 25.4507 14.2827 25.56C15.5326 26.8981 17.507 27.8887 19.3433 27.9686C19.4371 27.9734 19.5309 27.9782 19.6275 27.9832C21.7569 28.0408 23.7415 27.3152 25.3433 25.9061C25.4148 25.8436 25.4862 25.7811 25.5598 25.7167C26.8979 24.4668 27.8885 22.4924 27.9683 20.6561C27.9732 20.5623 27.978 20.4685 27.983 20.3719C28.0405 18.2425 27.3149 16.2579 25.9058 14.6561C25.8433 14.5847 25.7809 14.5132 25.7165 14.4396C24.4665 13.1015 22.4922 12.1109 20.6558 12.0311C20.562 12.0262 20.4683 12.0214 20.3716 12.0164C18.2423 11.9589 16.2577 12.6845 14.6558 14.0936Z" fill="white"/>
</g>
<defs>
<clipPath id="clip0_991_1368">
<rect width="48" height="48" fill="white" transform="translate(8 8)"/>
</clipPath>
</defs>
</svg>
