<svg width="40" height="40" viewBox="0 0 40 40" fill="none" xmlns="http://www.w3.org/2000/svg">
<rect width="40" height="40" fill="#80BB66"/>
<path d="M20.673 4.56861C20.9681 4.7516 21.2124 4.97158 21.3124 5.31226C21.3433 5.5541 21.3671 5.79227 21.3823 6.03565C21.4179 6.26312 21.4179 6.26312 21.6135 6.38892C21.6791 6.4255 21.7448 6.46208 21.8124 6.49976C21.9474 6.61378 21.9474 6.61378 22.0663 6.73023C22.1057 6.76786 22.1451 6.80548 22.1857 6.84425C22.3039 6.98925 22.3872 7.12715 22.4766 7.29073C22.5045 7.34154 22.5323 7.39234 22.561 7.44468C22.5821 7.48349 22.6032 7.52229 22.6249 7.56226C22.6636 7.56241 22.7022 7.56256 22.742 7.56272C23.6825 7.56641 24.6231 7.57114 25.5636 7.577C26.0184 7.5798 26.4732 7.58227 26.9281 7.58392C27.3246 7.58535 27.7211 7.58744 28.1176 7.59031C28.3275 7.5918 28.5373 7.59297 28.7472 7.59336C28.9817 7.59397 29.2162 7.59572 29.4506 7.59774C29.52 7.59765 29.5894 7.59756 29.6608 7.59747C30.0567 7.6023 30.3594 7.62707 30.6652 7.90601C30.909 8.2191 30.9631 8.44623 30.9592 8.83472C30.9235 9.10546 30.8034 9.29696 30.6249 9.49976C30.2852 9.75666 29.9592 9.75865 29.5458 9.75587C29.4714 9.75573 29.4714 9.75573 29.3956 9.7556C29.2376 9.75525 29.0797 9.75447 28.9218 9.75367C28.8145 9.75336 28.7073 9.75307 28.6 9.75282C28.3375 9.75213 28.075 9.75105 27.8124 9.74976C27.8346 9.80724 27.8568 9.86471 27.8796 9.92393C28.4266 11.3418 28.9692 12.7612 29.5074 14.1824C29.7279 14.7641 29.9491 15.3454 30.1774 15.9241C30.1954 15.9697 30.2133 16.0153 30.2318 16.0623C30.3124 16.2671 30.3935 16.4717 30.4757 16.6759C30.791 17.4745 30.8051 18.1417 30.4843 18.9529C30.3347 19.2859 30.1567 19.5834 29.9374 19.8748C29.9093 19.9132 29.8812 19.9516 29.8522 19.9912C29.3513 20.6276 28.54 21.0472 27.7499 21.1873C27.0178 21.2547 26.3074 21.2276 25.6249 20.9373C25.5716 20.9168 25.5183 20.8963 25.4633 20.8753C24.6182 20.51 24.008 19.7567 23.6662 18.9197C23.392 18.1313 23.3661 17.5321 23.6762 16.7578C23.7143 16.6592 23.7143 16.6592 23.7532 16.5587C23.8372 16.3421 23.9225 16.126 24.0077 15.9099C24.0667 15.7584 24.1256 15.6069 24.1844 15.4553C24.2766 15.2174 24.3689 14.9796 24.4616 14.7419C24.6891 14.1587 24.9129 13.5741 25.1344 12.9885C25.15 12.9473 25.1656 12.9061 25.1817 12.8636C25.2742 12.6193 25.3665 12.375 25.4588 12.1307C25.5876 11.7897 25.7167 11.4488 25.8459 11.1079C25.8705 11.0428 25.8951 10.9776 25.9205 10.9105C26.0677 10.5218 26.2191 10.135 26.3749 9.74976C25.8935 9.74198 25.4122 9.73794 24.9308 9.73859C24.7072 9.73878 24.4837 9.7377 24.2601 9.7337C24.044 9.72987 23.8282 9.72943 23.6121 9.73127C23.4901 9.73145 23.3682 9.72818 23.2462 9.72484C23.0192 9.72847 22.8399 9.73845 22.6249 9.81226C22.4273 10.0199 22.313 10.2446 22.1874 10.4998C22.0282 10.6719 22.0282 10.6719 21.8906 10.7849C21.8445 10.8237 21.7984 10.8624 21.7509 10.9024C21.6495 10.9807 21.544 11.0537 21.4374 11.1248C21.4089 11.3018 21.4089 11.3018 21.4138 11.5137C21.4133 11.5742 21.4133 11.5742 21.4129 11.6359C21.4122 11.7717 21.4128 11.9075 21.4134 12.0433C21.4131 12.1404 21.4128 12.2375 21.4124 12.3346C21.4116 12.5441 21.4115 12.7536 21.4118 12.9631C21.4122 13.2946 21.4112 13.626 21.41 13.9575C21.4076 14.6617 21.4068 15.3659 21.4062 16.0701C21.4055 16.829 21.4045 17.5879 21.4018 18.3468C21.4006 18.676 21.4004 19.0053 21.4008 19.3346C21.4009 19.5399 21.4002 19.7453 21.3994 19.9506C21.3991 20.0456 21.3992 20.1405 21.3996 20.2354C21.4039 21.3023 21.4039 21.3023 21.0707 21.7024C20.6834 22.0174 20.417 22.1569 19.9098 22.1441C19.4874 22.0931 19.2169 21.8741 18.9516 21.5547C18.7702 21.2768 18.7346 21.0395 18.7363 20.7105C18.7363 20.6697 18.7364 20.6289 18.7364 20.5869C18.7367 20.4507 18.7378 20.3145 18.7389 20.1783C18.7393 20.0804 18.7395 19.9825 18.7398 19.8847C18.7403 19.6742 18.7412 19.4637 18.7423 19.2531C18.744 18.9201 18.7443 18.5871 18.7442 18.254C18.7442 18.1399 18.7442 18.0258 18.7442 17.9117C18.7442 17.826 18.7442 17.826 18.7442 17.7385C18.7442 16.9634 18.7454 16.1882 18.7497 15.4131C18.7526 14.8899 18.7535 14.3667 18.7521 13.8435C18.7514 13.5668 18.7518 13.2902 18.7547 13.0134C18.7573 12.7531 18.7574 12.4929 18.7554 12.2325C18.7552 12.1372 18.7559 12.0418 18.7576 11.9465C18.7796 11.4288 18.7796 11.4288 18.5662 10.9773C18.4215 10.8602 18.4215 10.8602 18.2692 10.7739C17.8943 10.5488 17.6907 10.1939 17.4999 9.81226C15.6437 9.78133 15.6437 9.78133 13.7499 9.74976C13.9111 10.17 14.0722 10.5902 14.2382 11.0232C14.6615 12.1281 15.0835 13.2336 15.5038 14.3396C15.5278 14.4027 15.5518 14.4659 15.5766 14.5309C15.6924 14.8354 15.8079 15.1401 15.923 15.4448C16.0208 15.7036 16.1203 15.9617 16.2205 16.2196C16.2722 16.3538 16.3238 16.4881 16.3754 16.6223C16.3997 16.6839 16.4239 16.7455 16.4489 16.8089C16.7488 17.5937 16.6954 18.2833 16.3749 19.0623C15.9522 19.9893 15.2916 20.586 14.3625 20.9993C13.4715 21.3199 12.4346 21.3082 11.5624 20.9373C11.5091 20.9168 11.4558 20.8963 11.4008 20.8753C10.5556 20.51 9.96119 19.7614 9.6054 18.9334C9.3293 18.1845 9.29638 17.5503 9.59294 16.8086C9.61608 16.7485 9.63922 16.6884 9.66306 16.6265C9.73933 16.429 9.8169 16.2319 9.89446 16.0349C9.94822 15.8963 10.0019 15.7577 10.0554 15.6191C10.1673 15.3298 10.2796 15.0406 10.3921 14.7516C10.5589 14.3224 10.7229 13.8923 10.8859 13.4617C10.912 13.3927 10.9381 13.3238 10.965 13.2527C11.0167 13.1161 11.0684 12.9795 11.1201 12.8429C11.5111 11.8093 11.9077 10.7781 12.3124 9.74976C12.2469 9.75075 12.1813 9.75173 12.1138 9.75274C11.8687 9.75615 11.6237 9.75829 11.3786 9.76006C11.2729 9.761 11.1672 9.76228 11.0615 9.76391C10.9088 9.7662 10.7561 9.76725 10.6034 9.76807C10.5335 9.76953 10.5335 9.76953 10.4621 9.77101C10.1057 9.77112 9.73821 9.72115 9.46446 9.47371C9.18952 9.15599 9.16558 8.88693 9.16985 8.48267C9.20276 8.16359 9.36815 7.99978 9.59758 7.79273C9.81911 7.63937 9.9845 7.61698 10.2471 7.61725C10.311 7.61716 10.3749 7.61708 10.4407 7.61699C10.5107 7.61721 10.5808 7.61744 10.6529 7.61767C10.7267 7.61766 10.8005 7.61765 10.8765 7.61764C11.0789 7.61768 11.2812 7.61799 11.4835 7.61843C11.695 7.61882 11.9064 7.61885 12.1179 7.61893C12.5183 7.61912 12.9187 7.61964 13.3191 7.62026C13.775 7.62096 14.2309 7.6213 14.6867 7.62162C15.6245 7.62227 16.5622 7.62337 17.4999 7.62476C17.5191 7.57601 17.5382 7.52725 17.5579 7.47701C17.7759 6.94121 18.1456 6.56616 18.6249 6.24976C18.6662 6.24976 18.7074 6.24976 18.7499 6.24976C18.7478 6.2007 18.7456 6.15163 18.7433 6.10108C18.7298 5.57624 18.7746 5.29116 19.082 4.85914C19.4998 4.43161 20.1197 4.34852 20.673 4.56861ZM19.7577 5.54664C19.6688 5.69833 19.6688 5.69833 19.6874 5.93726C19.9349 5.93726 20.1824 5.93726 20.4374 5.93726C20.4095 5.65734 20.4095 5.65734 20.2499 5.43726C19.9771 5.40095 19.9771 5.40095 19.7577 5.54664ZM19.0624 7.12476C19.0234 7.14909 18.9844 7.17343 18.9443 7.19849C18.5376 7.49731 18.2941 7.96346 18.2179 8.45704C18.2003 8.97314 18.2881 9.41687 18.6103 9.82813C18.9632 10.2053 19.3697 10.4591 19.8891 10.5147C20.4313 10.5314 20.8555 10.3878 21.2734 10.0388C21.6836 9.65089 21.8767 9.26658 21.8984 8.70289C21.8882 8.19055 21.7282 7.72606 21.371 7.35011C20.9038 6.96293 20.4318 6.81723 19.829 6.84644C19.5364 6.88705 19.3112 6.96657 19.0624 7.12476ZM10.1249 8.56226C10.1456 8.64476 10.1662 8.72726 10.1874 8.81226C12.5387 8.81226 14.8899 8.81226 17.3124 8.81226C17.3124 8.72976 17.3124 8.64726 17.3124 8.56226C14.9406 8.56226 12.5687 8.56226 10.1249 8.56226ZM22.8124 8.56226C22.8124 8.64476 22.8124 8.72726 22.8124 8.81226C25.1637 8.81226 27.5149 8.81226 29.9374 8.81226C29.9374 8.72976 29.9374 8.64726 29.9374 8.56226C27.5862 8.56226 25.2349 8.56226 22.8124 8.56226ZM12.9999 10.6248C12.4685 12 11.9412 13.3768 11.4173 14.7549C11.3553 14.9179 11.2933 15.0808 11.2311 15.2437C11.143 15.4748 11.0552 15.706 10.9675 15.9373C10.941 16.0066 10.9145 16.0759 10.8873 16.1473C10.8628 16.212 10.8382 16.2768 10.813 16.3435C10.781 16.4276 10.781 16.4276 10.7484 16.5134C10.6779 16.7144 10.6209 16.92 10.5624 17.1248C12.1918 17.1248 13.8212 17.1248 15.4999 17.1248C15.3746 16.707 15.2448 16.3044 15.0876 15.8994C15.0551 15.8148 15.0551 15.8148 15.0219 15.7285C14.951 15.5441 14.8797 15.3598 14.8085 15.1755C14.7589 15.0467 14.7093 14.9178 14.6597 14.7889C14.556 14.5191 14.4521 14.2494 14.3481 13.9796C14.1078 13.3558 13.869 12.7313 13.63 12.107C13.5097 11.7926 13.3893 11.4784 13.269 11.1641C13.2286 11.0586 13.1882 10.9532 13.1478 10.8478C13.1056 10.7374 13.1056 10.7374 13.0624 10.6248C13.0418 10.6248 13.0212 10.6248 12.9999 10.6248ZM27.0624 10.6248C26.7726 11.381 26.483 12.1372 26.1935 12.8935C26.0323 13.3148 25.8708 13.736 25.7091 14.1571C25.5724 14.5131 25.436 14.8693 25.2995 15.2255C25.2404 15.3798 25.1811 15.5342 25.1218 15.6885C25.0385 15.9053 24.9555 16.1221 24.8725 16.3389C24.8473 16.4041 24.8222 16.4693 24.7963 16.5365C24.7736 16.596 24.7509 16.6554 24.7276 16.7166C24.7076 16.7686 24.6877 16.8205 24.6672 16.874C24.6183 16.9974 24.6183 16.9974 24.6249 17.1248C26.2543 17.1248 27.8837 17.1248 29.5624 17.1248C29.4448 16.7327 29.3267 16.3543 29.1796 15.9744C29.1609 15.9254 29.1422 15.8765 29.1229 15.826C29.0613 15.6651 28.9994 15.5043 28.9374 15.3435C28.848 15.1105 28.7587 14.8774 28.6694 14.6443C28.6459 14.5833 28.6225 14.5222 28.5984 14.4593C28.4137 13.9773 28.2312 13.4945 28.0492 13.0115C27.9682 12.7967 27.8871 12.5819 27.806 12.3671C27.753 12.2265 27.7001 12.0858 27.6474 11.9451C27.5733 11.7477 27.4988 11.5505 27.4242 11.3533C27.391 11.2642 27.391 11.2642 27.3571 11.1733C27.3365 11.1192 27.316 11.065 27.2948 11.0092C27.277 10.9618 27.2592 10.9145 27.2408 10.8658C27.1902 10.738 27.1902 10.738 27.0624 10.6248ZM19.6874 11.4373C19.6816 12.6716 19.6772 13.9059 19.6745 15.1402C19.6732 15.7134 19.6714 16.2865 19.6686 16.8596C19.6661 17.359 19.6645 17.8585 19.6639 18.3579C19.6636 18.6224 19.6628 18.887 19.661 19.1515C19.6593 19.4004 19.6588 19.6493 19.6592 19.8982C19.6591 19.9896 19.6586 20.081 19.6576 20.1724C19.6564 20.2971 19.6568 20.4218 19.6574 20.5465C19.657 20.6513 19.657 20.6513 19.6567 20.7581C19.6946 20.9793 19.759 21.0547 19.9374 21.1873C20.1337 21.198 20.1337 21.198 20.3124 21.1248C20.4558 20.9186 20.4529 20.7324 20.4525 20.4864C20.4526 20.4067 20.4528 20.3269 20.453 20.2447C20.4525 20.1565 20.4521 20.0683 20.4516 19.98C20.4516 19.887 20.4516 19.794 20.4517 19.701C20.4517 19.4486 20.451 19.1961 20.4501 18.9437C20.4493 18.6799 20.4492 18.416 20.4491 18.1522C20.4487 17.6526 20.4477 17.153 20.4464 16.6535C20.445 16.0847 20.4443 15.5159 20.4437 14.9472C20.4424 13.7772 20.4402 12.6072 20.4374 11.4373C20.1899 11.4373 19.9424 11.4373 19.6874 11.4373ZM10.3749 18.0623C10.4958 18.7877 10.8758 19.3617 11.4679 19.8032C11.6211 19.8997 11.7746 19.9833 11.9374 20.0623C11.9794 20.0835 12.0214 20.1046 12.0646 20.1265C12.6156 20.3568 13.37 20.3381 13.9335 20.1521C14.7819 19.7859 15.2733 19.2155 15.6249 18.3748C15.6456 18.2716 15.6662 18.1685 15.6874 18.0623C13.9343 18.0623 12.1812 18.0623 10.3749 18.0623ZM24.4374 18.0623C24.6362 18.8572 24.9718 19.4529 25.6874 19.9021C25.7905 19.9576 25.8946 20.0112 25.9999 20.0623C26.0419 20.0835 26.0839 20.1046 26.1271 20.1265C26.6804 20.3578 27.4354 20.3382 27.9999 20.1482C28.7696 19.814 29.2973 19.3086 29.6305 18.5359C29.6995 18.3526 29.6995 18.3526 29.7499 18.0623C27.9968 18.0623 26.2437 18.0623 24.4374 18.0623Z" fill="#111111"/>
<path d="M16.1877 27.9374C16.6365 28.279 17.2856 28.8493 17.3752 29.4374C17.432 29.4042 17.4888 29.371 17.5473 29.3368C18.2431 28.9415 18.9429 28.6796 19.7502 28.6249C19.7936 28.6217 19.8369 28.6184 19.8816 28.6151C20.7299 28.5811 21.6325 28.7847 22.3567 29.2284C22.4905 29.3229 22.4905 29.3229 22.6252 29.3124C22.7238 29.1887 22.7238 29.1887 22.8244 29.0311C23.5043 28.04 24.4946 27.3171 25.6877 27.0624C27.0665 26.827 28.334 27.0957 29.4946 27.8715C30.483 28.6261 31.1596 29.7109 31.3554 30.944C31.4256 31.5855 31.4308 32.1385 31.0275 32.6639C30.7881 32.9241 30.4981 33.0866 30.1877 33.2499C30.1455 33.273 30.1033 33.2961 30.0598 33.3199C28.4824 34.1056 26.3712 33.9771 24.6877 33.7499C24.6647 33.7996 24.6647 33.7996 24.6413 33.8503C24.3049 34.5539 23.7333 34.8807 23.0183 35.1409C22.2668 35.3848 21.4613 35.5079 20.6726 35.5126C20.6006 35.5131 20.6006 35.5131 20.5273 35.5137C20.4261 35.5142 20.3249 35.5146 20.2238 35.5149C20.0731 35.5155 19.9224 35.5174 19.7717 35.5194C18.4613 35.5284 16.8098 35.3473 15.8127 34.4061C15.625 34.2031 15.4377 33.9753 15.4377 33.6874C15.4006 33.6957 15.3634 33.704 15.3252 33.7125C15.2475 33.7291 15.2475 33.7291 15.1682 33.746C15.0931 33.7623 15.0931 33.7623 15.0166 33.7789C13.1646 34.0828 10.8222 34.0019 9.23629 32.9037C8.91904 32.6518 8.70275 32.3412 8.62521 31.9374C8.52952 30.6456 8.99253 29.4669 9.82442 28.4921C11.5176 26.6872 14.2037 26.507 16.1877 27.9374ZM10.3042 29.4069C9.82442 30.0531 9.51046 30.872 9.54049 31.6857C9.58138 31.9189 9.69363 32.0499 9.87521 32.1874C11.4634 33.1869 13.604 33.0628 15.3752 32.7499C15.4762 32.5128 15.5449 32.2765 15.6096 32.0272C15.7978 31.3652 16.0774 30.8344 16.5229 30.3099C16.6282 30.1933 16.6282 30.1933 16.6877 30.0624C16.2987 29.1829 15.5385 28.5265 14.6633 28.1615C13.0133 27.5966 11.4263 28.0877 10.3042 29.4069ZM23.9033 29.1715C23.6572 29.4608 23.4793 29.6928 23.3752 30.0624C23.4206 30.107 23.4206 30.107 23.467 30.1525C24.1852 30.9024 24.4656 31.758 24.6877 32.7499C26.3451 33.0854 28.5212 33.196 30.0158 32.246C30.1935 32.1217 30.3216 31.9965 30.4377 31.8124C30.5259 31.0562 30.2495 30.1773 29.8127 29.5624C29.171 28.762 28.3823 28.1498 27.3501 27.955C26.0242 27.8114 24.8283 28.1757 23.9033 29.1715ZM17.239 30.8295C16.671 31.4917 16.3286 32.3441 16.2893 33.2186C16.3148 33.4568 16.3633 33.5568 16.5002 33.7499C17.781 34.7828 19.9305 34.6941 21.4817 34.5309C22.2172 34.4316 23.0959 34.242 23.6252 33.6874C23.8438 33.3879 23.8271 33.1887 23.7856 32.8319C23.6115 31.8137 23.1284 30.9467 22.3076 30.3138C20.6752 29.1819 18.6179 29.3912 17.239 30.8295Z" fill="#111111"/>
<path d="M14.6698 22.3536C15.1934 22.7377 15.5429 23.2399 15.6873 23.8749C15.7683 24.6088 15.6916 25.2749 15.2655 25.8944C14.8677 26.3819 14.3102 26.7135 13.6873 26.8124C12.9977 26.8688 12.3876 26.774 11.8202 26.3592C11.3212 25.9352 10.9292 25.3537 10.8748 24.6874C10.8709 24.6434 10.8669 24.5994 10.8629 24.5541C10.8305 23.9053 11.022 23.3005 11.4469 22.808C12.3035 21.9133 13.5817 21.6892 14.6698 22.3536ZM12.0902 23.5543C11.8334 23.9326 11.7765 24.2526 11.835 24.7074C11.9383 25.142 12.2041 25.4366 12.5623 25.6874C12.9395 25.8938 13.2798 25.9414 13.6961 25.8434C14.1235 25.7007 14.3965 25.4756 14.617 25.0858C14.7983 24.691 14.8204 24.3263 14.7083 23.9071C14.5386 23.4673 14.2572 23.2352 13.8553 23.0077C13.1523 22.7932 12.5463 22.9784 12.0902 23.5543Z" fill="#111111"/>
<path d="M28.0151 22.3349C28.5948 22.7429 28.9712 23.284 29.1054 23.9823C29.2044 24.7062 29.041 25.3361 28.6249 25.9377C28.1785 26.4311 27.6119 26.7762 26.9389 26.8266C26.1832 26.8469 25.593 26.6699 25.0234 26.1681C24.4517 25.5212 24.2607 25.0053 24.2912 24.1352C24.3352 23.4428 24.675 22.9364 25.1657 22.463C25.9644 21.8226 27.1615 21.8189 28.0151 22.3349ZM25.4472 23.5724C25.2119 23.9476 25.1989 24.3185 25.2499 24.7502C25.3899 25.2156 25.6427 25.512 26.0624 25.7502C26.4183 25.9167 26.7887 25.9465 27.1618 25.8205C27.6267 25.6079 27.9318 25.3346 28.121 24.8556C28.2238 24.4936 28.2153 24.148 28.0658 23.8002C27.8572 23.4374 27.5754 23.1607 27.1991 22.9767C26.4883 22.8373 25.9134 22.9978 25.4472 23.5724Z" fill="#111111"/>
<path d="M21.3348 23.9573C21.9465 24.3912 22.333 24.9387 22.4608 25.6756C22.5498 26.4356 22.3555 27.0729 21.9044 27.6937C21.536 28.1026 20.935 28.415 20.3868 28.4544C19.6022 28.4791 19.03 28.3791 18.41 27.8592C18.1425 27.6016 17.9631 27.3377 17.8123 26.9998C17.7866 26.9444 17.7608 26.889 17.7342 26.8318C17.5398 26.2325 17.6058 25.648 17.8123 25.0623C18.1207 24.474 18.6058 23.9909 19.2296 23.7469C19.9589 23.5282 20.6603 23.5799 21.3348 23.9573ZM18.8748 25.1248C18.6229 25.4878 18.5144 25.8918 18.5855 26.3304C18.7134 26.7927 19.0051 27.1611 19.4178 27.4061C19.7842 27.5654 20.1987 27.5646 20.5811 27.4608C20.9644 27.2941 21.2643 26.9745 21.4476 26.6019C21.5668 26.2265 21.5712 25.8131 21.4312 25.4439C21.192 25.0183 20.9201 24.7731 20.4647 24.6053C19.8485 24.482 19.2923 24.6455 18.8748 25.1248Z" fill="#111111"/>
</svg>
