<svg width="40" height="40" viewBox="0 0 40 40" fill="none" xmlns="http://www.w3.org/2000/svg">
<rect width="40" height="40" fill="#2E2878"/>
<path d="M25.1908 22.4918C26.4728 23.5734 27.3575 24.957 27.5278 26.6529C27.6622 28.6992 27.2506 30.4008 25.9134 32.0035C24.6793 33.3121 23.1 33.9606 21.3202 34.047C20.7078 34.0857 20.1487 34.1694 19.5545 34.3204C16.9713 34.9103 14.5113 34.3585 12.1405 33.2814C11.4094 32.9889 10.6533 32.9482 9.87486 33.0001C9.65101 33.1406 9.65101 33.1406 9.49986 33.3751C8.96109 33.927 8.74731 34.142 7.9669 34.1544C7.84013 34.1554 7.84013 34.1554 7.7108 34.1564C7.46402 34.1612 7.46402 34.1612 7.21226 34.1661C6.72276 34.1227 6.50266 34.0577 6.12486 33.7501C5.792 33.2862 5.70269 32.9663 5.70134 32.3986C5.69956 32.1839 5.69956 32.1839 5.69775 31.965C5.69889 31.7349 5.69889 31.7349 5.70005 31.5001C5.6997 31.3416 5.69934 31.183 5.69897 31.0196C5.69871 30.6846 5.69921 30.3498 5.70097 30.0148C5.70311 29.5865 5.70188 29.1582 5.69963 28.7299C5.69795 28.32 5.69913 27.9101 5.70005 27.5001C5.6993 27.3467 5.69854 27.1933 5.69775 27.0353C5.69894 26.8922 5.70012 26.7491 5.70134 26.6017C5.70163 26.4762 5.70193 26.3506 5.70224 26.2213C5.77528 25.6903 5.98814 25.3599 6.40269 25.027C6.84557 24.8333 7.19699 24.8209 7.67955 24.8204C7.83923 24.818 7.99891 24.8156 8.16343 24.8131C8.6965 24.8847 8.96082 25.0379 9.37486 25.3751C9.45736 25.4989 9.53986 25.6226 9.62486 25.7501C9.72107 25.7117 9.81727 25.6734 9.91639 25.6338C13.7706 24.0993 13.7706 24.0993 15.3436 23.6525C15.9854 23.4632 16.2154 23.2961 16.6249 22.7501C19.1524 20.6977 22.552 20.473 25.1908 22.4918ZM17.4999 23.3751C17.4999 23.4164 17.4999 23.4576 17.4999 23.5001C17.6903 23.5071 17.6903 23.5071 17.8846 23.5143C20.7798 23.6431 20.7798 23.6431 21.8749 24.5001C21.961 24.791 22.0442 25.0827 22.1249 25.3751C22.3195 25.5655 22.3195 25.5655 22.5545 25.7345C22.9922 26.0824 23.1862 26.389 23.3387 26.9264C23.4082 27.5486 23.267 28.1459 23.1249 28.7501C23.2003 28.788 23.2757 28.8259 23.3534 28.8649C24.3591 29.3921 24.7778 29.9883 25.2499 31.0001C25.6507 30.6377 25.8706 30.3069 26.0858 29.8126C26.1639 29.6367 26.1639 29.6367 26.2435 29.4571C26.6823 28.3479 26.6829 26.8798 26.2967 25.7501C25.6648 24.2976 24.6829 23.1282 23.203 22.5001C21.2309 21.7508 19.151 22.02 17.4999 23.3751ZM12.7499 25.6251C12.4761 25.7341 12.2024 25.843 11.9286 25.9518C11.1598 26.2574 10.3924 26.5664 9.62486 26.8751C9.62486 28.5664 9.62486 30.2576 9.62486 32.0001C9.99611 32.0001 10.3674 32.0001 10.7499 32.0001C11.7194 32.0595 12.5529 32.2979 13.4374 32.6798C15.1468 33.4144 16.6565 33.5527 18.4999 33.5001C18.1578 33.2379 17.8079 32.9983 17.4452 32.7657C16.2615 31.9767 15.5171 30.9347 14.9999 29.6251C14.9541 29.5109 14.9083 29.3966 14.8612 29.2789C14.8061 29.1409 14.8061 29.1409 14.7499 29.0001C14.643 28.9925 14.5362 28.985 14.4261 28.9772C14.288 28.9667 14.1499 28.9562 14.0077 28.9454C13.8699 28.9353 13.7321 28.9251 13.5902 28.9147C13.2499 28.8751 13.2499 28.8751 13.1249 28.7501C13.1198 28.5418 13.1195 28.3334 13.1249 28.1251C13.2082 28.1219 13.2915 28.1187 13.3773 28.1154C14.614 28.0392 15.6731 27.7651 16.6068 26.921C16.7766 26.7553 16.7766 26.7553 16.7499 26.5001C16.9165 26.4168 17.0832 26.3335 17.2499 26.2501C17.3171 26.2082 17.3842 26.1663 17.4535 26.1232C17.8806 25.9458 18.3172 25.9295 18.7733 25.8907C19.6059 25.8087 20.2564 25.6556 20.9999 25.2501C20.4696 24.6472 19.7358 24.5371 18.959 24.478C16.7216 24.376 14.8175 24.7906 12.7499 25.6251ZM6.74986 26.1251C6.71155 26.4216 6.71155 26.4216 6.71751 26.7692C6.71672 26.9035 6.71593 27.0378 6.71512 27.1762C6.71563 27.3217 6.71613 27.4673 6.71666 27.6173C6.71642 27.7662 6.71618 27.9151 6.71593 28.0684C6.71576 28.3837 6.71622 28.6989 6.71727 29.0142C6.7186 29.4981 6.71728 29.982 6.71568 30.4659C6.71584 30.7716 6.71616 31.0773 6.71666 31.3829C6.71615 31.5285 6.71564 31.6741 6.71512 31.8241C6.71591 31.9584 6.7167 32.0927 6.71751 32.2311C6.71771 32.3497 6.71791 32.4683 6.71811 32.5905C6.72264 32.8999 6.72264 32.8999 6.99986 33.1251C7.32475 33.1651 7.32475 33.1651 7.68736 33.1564C7.80982 33.157 7.93228 33.1577 8.05845 33.1583C8.39597 33.1565 8.39597 33.1565 8.62486 32.8751C8.66316 32.5787 8.66316 32.5787 8.65721 32.2311C8.658 32.0968 8.65878 31.9624 8.6596 31.8241C8.65909 31.6785 8.65858 31.5329 8.65806 31.3829C8.65842 31.1596 8.65842 31.1596 8.65879 30.9318C8.65896 30.6166 8.65849 30.3013 8.65745 29.9861C8.65611 29.5021 8.65744 29.0182 8.65904 28.5343C8.65887 28.2286 8.65855 27.923 8.65806 27.6173C8.65857 27.4717 8.65907 27.3262 8.6596 27.1762C8.65881 27.0419 8.65802 26.9075 8.65721 26.7692C8.65701 26.6506 8.65681 26.532 8.6566 26.4098C8.65208 26.1003 8.65208 26.1003 8.37486 25.8751C8.04996 25.8352 8.04996 25.8352 7.68736 25.8439C7.5649 25.8432 7.44244 25.8426 7.31627 25.8419C6.97875 25.8438 6.97875 25.8438 6.74986 26.1251ZM20.4999 26.5001C20.322 26.5659 20.322 26.5659 20.1405 26.6329C19.8539 26.7256 19.8539 26.7256 19.7499 27.0001C19.6994 27.5245 19.7196 27.8157 19.9608 28.2892C20.2681 28.6463 20.418 28.7772 20.8749 28.8751C21.4813 28.8499 21.8321 28.6911 22.2499 28.2501C22.4887 27.7226 22.5248 27.4687 22.3749 26.9064C21.8394 26.0363 21.3549 26.0493 20.4999 26.5001ZM17.3749 27.3751C17.2318 27.5259 17.2318 27.5259 17.0858 27.6798C16.6776 28.069 16.2351 28.3421 15.7499 28.6251C15.9561 29.5874 16.2299 30.4651 16.9999 31.1251C17.0244 31.045 17.0488 30.965 17.0741 30.8824C17.4418 29.819 17.9982 29.251 18.9999 28.7501C18.9174 28.1314 18.8349 27.5126 18.7499 26.8751C17.9302 26.8749 17.9302 26.8749 17.3749 27.3751ZM18.1249 30.5314C17.9462 31.0226 17.9694 31.4831 17.9999 32.0001C18.2474 32.1239 18.4949 32.2476 18.7499 32.3751C18.7911 31.8801 18.8324 31.3851 18.8749 30.8751C19.0811 30.8751 19.2874 30.8751 19.4999 30.8751C19.7425 31.1177 19.6748 31.5592 19.6952 31.8829C19.7056 32.0442 19.7161 32.2055 19.7269 32.3717C19.7345 32.4966 19.7421 32.6215 19.7499 32.7501C20.249 32.9862 20.6453 33.0306 21.1952 33.0236C21.3346 33.0227 21.4739 33.0219 21.6175 33.0211C22.0237 33.0109 22.0237 33.0109 22.4999 32.8751C22.5411 32.2151 22.5824 31.5551 22.6249 30.8751C22.8311 30.8751 23.0374 30.8751 23.2499 30.8751C23.402 31.1794 23.4148 31.4274 23.4452 31.7657C23.4556 31.8795 23.4661 31.9933 23.4769 32.1105C23.4845 32.1978 23.4921 32.2851 23.4999 32.3751C23.9061 32.2391 23.9061 32.2391 24.2499 32.0001C24.3013 31.3443 24.2355 30.9281 23.8749 30.3751C23.4275 29.9325 23.0714 29.632 22.4295 29.6095C21.9499 29.6139 21.4839 29.6659 21.0096 29.735C20.7271 29.7514 20.5207 29.7021 20.2499 29.6251C19.3356 29.5196 18.722 29.8596 18.1249 30.5314Z" fill="white"/>
<path d="M32.3592 8.33601C33.5785 9.29259 34.4289 10.5745 34.6248 12.1251C34.7799 13.9315 34.2983 15.3779 33.1571 16.7647C32.1423 17.8806 30.8237 18.383 29.3499 18.5269C27.8573 18.5939 26.4772 18.0582 25.3592 17.1016C24.2434 16.0492 23.6173 14.8775 23.4564 13.3331C23.4096 11.6209 23.9534 10.1256 25.1161 8.86482C27.1135 7.01434 30.1062 6.79815 32.3592 8.33601ZM25.4686 10.0391C24.6141 11.0892 24.4006 12.3035 24.4998 13.6251C24.6471 14.3809 24.8865 15.0264 25.3748 15.6251C25.4573 15.6251 25.5398 15.6251 25.6248 15.6251C25.6551 15.5511 25.6854 15.4772 25.7166 15.4009C26.111 14.4712 26.4967 13.9139 27.3748 13.3751C27.3104 13.2359 27.2459 13.0966 27.1795 12.9532C26.9451 12.3236 26.9652 11.7734 27.1248 11.1251C27.4056 10.5736 27.677 10.2419 28.2498 10.0001C29.0236 9.80886 29.6793 9.84157 30.3748 10.2501C30.795 10.6592 31.0037 11.0523 31.1248 11.6251C31.1149 12.2475 31.023 12.8106 30.7498 13.3751C30.8494 13.4432 30.8494 13.4432 30.951 13.5128C31.7662 14.0929 32.2201 14.6458 32.4998 15.6251C32.8959 15.5393 32.8959 15.5393 33.0438 15.2047C33.0963 15.083 33.1489 14.9613 33.203 14.836C33.2561 14.7153 33.3093 14.5946 33.3641 14.4703C33.8121 13.3309 33.7305 12.1192 33.2498 11.0001C32.6062 9.77898 31.6773 8.95543 30.3748 8.50007C28.5208 7.92811 26.7323 8.6777 25.4686 10.0391ZM28.2498 11.1251C27.9563 11.4871 27.8731 11.6642 27.8827 12.1329C28.0195 12.5618 28.1368 12.7352 28.4998 13.0001C28.9418 13.1411 29.1557 13.1645 29.5858 12.9844C29.9172 12.7158 30.0848 12.5193 30.2498 12.1251C30.2407 11.6773 30.1781 11.4481 29.9139 11.086C29.3103 10.6456 28.8256 10.6582 28.2498 11.1251ZM26.953 14.9454C26.574 15.5139 26.4542 15.937 26.3748 16.6251C27.5799 17.3351 28.6931 17.6704 30.0936 17.4219C30.6973 17.2606 31.2217 16.9522 31.7498 16.6251C31.5988 15.7309 31.383 15.0949 30.6873 14.4688C29.4109 13.5753 27.9812 13.836 26.953 14.9454Z" fill="white"/>
<path d="M16.2508 8.54626C17.4352 9.51468 18.2161 10.6311 18.4339 12.1664C18.5992 13.9202 18.2088 15.3914 17.1434 16.8075C16.0398 17.9928 14.4799 18.6101 12.8748 18.6717C11.3379 18.615 9.99101 18.0457 8.86456 17.0091C7.64805 15.6935 7.2713 14.2758 7.33184 12.5238C7.42652 11.0282 8.14547 9.78652 9.22637 8.77331C11.2443 7.11838 14.1271 6.99434 16.2508 8.54626ZM9.16436 10.392C8.38624 11.4933 8.21263 12.672 8.37481 13.9999C8.57603 14.7053 8.81304 15.3806 9.37481 15.8749C9.4188 15.7753 9.46279 15.6757 9.50811 15.5731C9.89867 14.7349 10.2486 14.1631 10.9998 13.6249C11.0823 13.5424 11.1648 13.4599 11.2498 13.3749C11.1879 13.2743 11.1261 13.1738 11.0623 13.0702C10.7705 12.3772 10.7699 11.7926 11.0232 11.0858C11.3965 10.5324 11.7677 10.2537 12.4061 10.0702C13.0468 9.94931 13.5492 10.0825 14.1248 10.3749C14.4929 10.6675 14.6955 10.9437 14.8748 11.3749C14.9508 12.1143 14.9228 12.8108 14.6248 13.4999C14.7002 13.5605 14.7756 13.621 14.8533 13.6835C15.4311 14.168 15.8615 14.5794 16.1556 15.2797C16.2572 15.5357 16.2572 15.5357 16.4998 15.8749C17.2667 14.797 17.6268 13.6595 17.4456 12.3319C17.1724 11.0504 16.5337 9.97264 15.4607 9.203C13.264 7.86714 10.7574 8.43431 9.16436 10.392ZM11.9998 11.2499C11.7283 11.5804 11.7499 11.7536 11.7654 12.1874C11.8863 12.6708 11.9704 12.8407 12.3748 13.1249C12.828 13.2695 13.0326 13.2918 13.4686 13.0936C13.8663 12.7843 13.9895 12.5793 14.0545 12.078C14.0369 11.6107 14.0369 11.6107 13.7264 11.2655C13.0691 10.7689 12.6915 10.8041 11.9998 11.2499ZM10.7654 15.1171C10.4284 15.6028 10.2623 15.9867 10.2342 16.578C10.515 17.1708 11.2145 17.3155 11.7967 17.5311C12.9893 17.7779 14.1336 17.6233 15.2029 17.0233C15.5232 16.776 15.5232 16.776 15.5936 16.4217C15.4147 15.6171 14.997 14.9567 14.367 14.4296C14.0053 14.2526 13.7735 14.1611 13.3748 14.1249C13.2354 14.1109 13.2354 14.1109 13.0931 14.0965C12.0806 14.0378 11.4398 14.3719 10.7654 15.1171Z" fill="white"/>
<path d="M20.625 5.375C21.2344 5.48438 21.2344 5.48438 21.375 5.625C21.3907 5.98252 21.3983 6.33716 21.4007 6.69485C21.4019 6.80704 21.4031 6.91922 21.4044 7.03481C21.4084 7.40748 21.4115 7.78015 21.4146 8.15283C21.4171 8.41049 21.4197 8.66814 21.4224 8.92579C21.4293 9.60537 21.4355 10.285 21.4415 10.9645C21.4478 11.6574 21.4548 12.3503 21.4617 13.0432C21.4751 14.4038 21.4878 15.7644 21.5 17.125C22.0246 17.4165 22.5491 17.708 23.0737 17.9995C23.1512 18.0426 23.2287 18.0856 23.3086 18.13C24.1717 18.6096 25.0349 19.089 25.8989 19.5669C26.0347 19.6421 26.1704 19.7172 26.3103 19.7947C26.5752 19.9413 26.8402 20.0878 27.1052 20.2341C29.3572 21.4822 29.3572 21.4822 29.625 21.75C29.6406 22.0625 29.6406 22.0625 29.625 22.375C29.5 22.5 29.5 22.5 29.1958 22.5508C28.5329 22.4753 28.0588 22.1509 27.4922 21.8125C27.2366 21.6638 26.9809 21.5154 26.7251 21.3672C26.5887 21.2877 26.4523 21.2083 26.3118 21.1265C25.5328 20.6756 24.742 20.2456 23.9531 19.8125C23.7251 19.6871 23.4972 19.5616 23.2693 19.436C23.0577 19.3197 22.8458 19.204 22.6339 19.0884C22.3923 18.9541 22.1526 18.8162 21.9159 18.6733C21.7695 18.5856 21.7695 18.5856 21.6201 18.4961C21.5383 18.4451 21.4565 18.3941 21.3723 18.3416C21.0318 18.2155 20.845 18.2694 20.5 18.375C20.2726 18.4797 20.0491 18.5933 19.8291 18.7129C19.6992 18.7831 19.5692 18.8534 19.4353 18.9258C19.2968 19.0018 19.1583 19.0779 19.0156 19.1562C18.8722 19.2342 18.7288 19.3122 18.581 19.3926C17.3878 20.0427 16.2042 20.7097 15.0239 21.3828C14.9179 21.4426 14.8119 21.5024 14.7027 21.564C14.4718 21.695 14.2422 21.8284 14.0136 21.9634C13.8942 22.0322 13.7749 22.101 13.6519 22.1719C13.5449 22.2347 13.4379 22.2976 13.3276 22.3623C12.947 22.5223 12.6589 22.5251 12.25 22.5C12.1641 22.2109 12.1641 22.2109 12.125 21.875C12.4025 21.5192 12.7652 21.3335 13.1562 21.1191C13.2901 21.0453 13.424 20.9715 13.5619 20.8954C13.7065 20.8165 13.851 20.7376 14 20.6562C14.1503 20.5736 14.3006 20.4909 14.4508 20.4081C14.765 20.235 15.0793 20.0622 15.3938 19.8896C16.097 19.5033 16.7982 19.1134 17.4993 18.7235C17.7142 18.6041 17.9291 18.4849 18.144 18.3656C18.3425 18.2554 18.3425 18.2554 18.5449 18.1431C18.6676 18.075 18.7903 18.0069 18.9167 17.9368C19.2024 17.7767 19.4853 17.6127 19.7676 17.4468C20.125 17.25 20.125 17.25 20.375 17.25C20.3744 17.1068 20.3739 16.9635 20.3733 16.8159C20.3683 15.4677 20.3645 14.1194 20.362 12.7712C20.3607 12.078 20.359 11.3848 20.3561 10.6916C20.3534 10.023 20.3519 9.35433 20.3513 8.68567C20.3508 8.43025 20.3499 8.17482 20.3486 7.9194C20.3468 7.56234 20.3465 7.2053 20.3466 6.84824C20.3457 6.74205 20.3448 6.63587 20.3439 6.52646C20.3456 6.03615 20.3468 5.79234 20.625 5.375Z" fill="white"/>
</svg>
