<svg width="40" height="40" viewBox="0 0 40 40" fill="none" xmlns="http://www.w3.org/2000/svg">
<rect width="40" height="40" fill="#80BB66"/>
<g clip-path="url(#clip0_991_244)">
<path d="M10.2502 4.00017C10.8774 4.30259 11.3126 4.75007 11.6252 5.37517C11.6886 6.06958 11.7205 6.67746 11.4142 7.31267C11.0622 7.69323 10.7161 8.01719 10.2502 8.25017C10.2089 10.6427 10.1677 13.0352 10.1252 15.5002C11.3627 15.5002 12.6002 15.5002 13.8752 15.5002C13.8752 15.0464 13.8752 14.5927 13.8752 14.1252C14.1252 13.8752 14.1252 13.8752 14.3545 13.8451C14.4473 13.8457 14.54 13.8462 14.6355 13.8468C14.7406 13.8468 14.8457 13.8468 14.9539 13.8468C15.1243 13.8488 15.1243 13.8488 15.298 13.8508C15.4723 13.8513 15.4723 13.8513 15.6501 13.8518C16.022 13.8532 16.3939 13.8564 16.7658 13.8595C17.0176 13.8608 17.2694 13.8619 17.5212 13.863C18.1392 13.8657 18.7572 13.87 19.3752 13.8752C19.3758 13.3501 19.3716 12.8254 19.363 12.3005C19.3607 12.122 19.3597 11.9435 19.3602 11.7651C19.3605 11.508 19.3561 11.2513 19.3508 10.9943C19.3494 10.8398 19.3481 10.6853 19.3468 10.5262C19.2863 10.0928 19.2863 10.0928 18.8869 9.84136C18.7593 9.77001 18.6317 9.69867 18.5002 9.62517C17.8963 8.93968 17.8314 8.52449 17.84 7.62322C17.9027 6.95754 18.2194 6.63739 18.7033 6.21111C19.3433 5.75639 19.9839 5.80296 20.7502 5.87517C21.3774 6.17759 21.8126 6.62507 22.1252 7.25017C22.1886 7.94458 22.2205 8.55246 21.9142 9.18767C21.5622 9.56823 21.2161 9.89219 20.7502 10.1252C20.7089 11.3627 20.6677 12.6002 20.6252 13.8752C21.4914 13.8752 22.3577 13.8752 23.2502 13.8752C23.2473 13.5352 23.2444 13.1952 23.2414 12.8449C23.2394 12.5164 23.2379 12.188 23.2364 11.8595C23.2352 11.6308 23.2335 11.4021 23.2313 11.1734C23.2283 10.8452 23.2269 10.5169 23.2258 10.1886C23.2245 10.086 23.2232 9.98343 23.2218 9.87771C23.2218 9.62668 23.2349 9.37572 23.2502 9.12517C23.5792 8.79619 23.8175 8.84408 24.2654 8.84043C24.3699 8.84094 24.4745 8.84144 24.5822 8.84197C24.6895 8.84173 24.7967 8.84149 24.9072 8.84124C25.1342 8.84107 25.3612 8.84153 25.5881 8.84258C25.9363 8.84391 26.2843 8.84259 26.6325 8.84099C26.8527 8.84115 27.0729 8.84147 27.2931 8.84197C27.3977 8.84146 27.5023 8.84095 27.61 8.84043C28.3464 8.84643 28.3464 8.84643 28.6252 9.12517C28.6564 9.50017 28.6564 9.50017 28.6252 9.87517C28.3752 10.1252 28.3752 10.1252 27.9911 10.1536C27.83 10.1522 27.669 10.1509 27.5031 10.1496C27.4174 10.1492 27.3318 10.1489 27.2435 10.1485C26.9697 10.1471 26.6959 10.144 26.422 10.1408C26.2365 10.1395 26.051 10.1384 25.8654 10.1374C25.4103 10.1348 24.9553 10.1299 24.5002 10.1252C24.5002 11.3627 24.5002 12.6002 24.5002 13.8752C24.9539 13.8752 25.4077 13.8752 25.8752 13.8752C26.1252 14.1252 26.1252 14.1252 26.1552 14.3545C26.1547 14.4473 26.1541 14.54 26.1536 14.6355C26.1535 14.7931 26.1535 14.7931 26.1535 14.9539C26.1522 15.0675 26.1509 15.181 26.1496 15.298C26.1492 15.4142 26.1489 15.5304 26.1485 15.6501C26.1471 16.022 26.144 16.3939 26.1408 16.7658C26.1395 17.0176 26.1384 17.2694 26.1374 17.5212C26.1346 18.1392 26.1303 18.7572 26.1252 19.3752C26.6502 19.3758 27.1749 19.3716 27.6999 19.363C27.8783 19.3607 28.0568 19.3597 28.2353 19.3602C28.4924 19.3605 28.749 19.3561 29.006 19.3508C29.1605 19.3494 29.315 19.3481 29.4742 19.3468C29.9075 19.2863 29.9075 19.2863 30.159 18.8869C30.266 18.6955 30.266 18.6955 30.3752 18.5002C31.0607 17.8963 31.4758 17.8314 32.3771 17.84C33.0428 17.9027 33.3629 18.2194 33.7892 18.7033C34.2439 19.3433 34.1974 19.9839 34.1252 20.7502C33.8228 21.3774 33.3753 21.8126 32.7502 22.1252C32.0558 22.1886 31.4479 22.2205 30.8127 21.9142C30.4321 21.5622 30.1082 21.2161 29.8752 20.7502C28.6377 20.7089 27.4002 20.6677 26.1252 20.6252C26.1252 21.4914 26.1252 22.3577 26.1252 23.2502C26.4652 23.2473 26.8052 23.2444 27.1554 23.2414C27.4839 23.2394 27.8124 23.2379 28.1409 23.2364C28.3695 23.2352 28.5982 23.2335 28.8269 23.2313C29.1552 23.2283 29.4834 23.2269 29.8117 23.2258C29.9143 23.2245 30.0169 23.2232 30.1226 23.2218C30.3737 23.2218 30.6246 23.2349 30.8752 23.2502C31.1252 23.5002 31.1252 23.5002 31.1549 23.8401C31.1543 23.9846 31.1537 24.1291 31.1531 24.2779C31.1532 24.4415 31.1532 24.605 31.1533 24.7735C31.1528 24.8612 31.1523 24.9489 31.1518 25.0392C31.1506 25.3135 31.1512 25.5877 31.1525 25.8619C31.156 26.6418 31.1576 27.4216 31.1539 28.2014C31.1518 28.6783 31.1534 29.1551 31.1572 29.632C31.158 29.8137 31.1574 29.9954 31.1554 30.1771C31.1527 30.4314 31.155 30.6857 31.1575 30.9401C31.1573 31.0847 31.1571 31.2294 31.1569 31.3785C31.2182 31.7852 31.2182 31.7852 31.6129 32.0303C31.8046 32.1391 31.8046 32.1391 32.0002 32.2502C32.6041 32.9357 32.669 33.3508 32.6603 34.2521C32.5976 34.9178 32.2809 35.2379 31.797 35.6642C31.1571 36.1189 30.5164 36.0724 29.7502 36.0002C29.1229 35.6977 28.6877 35.2503 28.3752 34.6252C28.3118 33.9308 28.2798 33.3229 28.5861 32.6877C28.9381 32.3071 29.2842 31.9832 29.7502 31.7502C29.7914 29.3577 29.8327 26.9652 29.8752 24.5002C28.6377 24.5002 27.4002 24.5002 26.1252 24.5002C26.1252 24.9539 26.1252 25.4077 26.1252 25.8752C25.8752 26.1252 25.8752 26.1252 25.6458 26.1552C25.5067 26.1544 25.5067 26.1544 25.3649 26.1536C25.2072 26.1535 25.2072 26.1535 25.0464 26.1535C24.9329 26.1522 24.8193 26.1509 24.7023 26.1496C24.5861 26.1492 24.47 26.1489 24.3503 26.1485C23.9783 26.1471 23.6065 26.144 23.2345 26.1408C22.9828 26.1395 22.731 26.1384 22.4792 26.1374C21.8612 26.1346 21.2432 26.1303 20.6252 26.1252C20.6245 26.6502 20.6287 27.1749 20.6374 27.6999C20.6396 27.8783 20.6406 28.0568 20.6402 28.2353C20.6398 28.4924 20.6442 28.749 20.6496 29.006C20.6509 29.1605 20.6522 29.315 20.6536 29.4742C20.714 29.9075 20.714 29.9075 21.1134 30.159C21.3048 30.266 21.3048 30.266 21.5002 30.3752C22.1041 31.0607 22.169 31.4758 22.1603 32.3771C22.0976 33.0428 21.7809 33.3629 21.297 33.7892C20.6571 34.2439 20.0164 34.1974 19.2502 34.1252C18.6229 33.8228 18.1877 33.3753 17.8752 32.7502C17.8118 32.0558 17.7798 31.4479 18.0861 30.8127C18.4381 30.4321 18.7842 30.1082 19.2502 29.8752C19.2914 28.6377 19.3327 27.4002 19.3752 26.1252C18.5089 26.1252 17.6427 26.1252 16.7502 26.1252C16.7531 26.4652 16.756 26.8052 16.759 27.1554C16.7609 27.4839 16.7624 27.8124 16.7639 28.1409C16.7652 28.3695 16.7669 28.5982 16.769 28.8269C16.7721 29.1552 16.7735 29.4834 16.7746 29.8117C16.7759 29.9143 16.7772 30.0169 16.7785 30.1226C16.7785 30.3737 16.7655 30.6246 16.7502 30.8752C16.4212 31.2042 16.1828 31.1563 15.735 31.1599C15.6304 31.1594 15.5259 31.1589 15.4181 31.1584C15.3109 31.1586 15.2036 31.1589 15.0931 31.1591C14.8661 31.1593 14.6392 31.1588 14.4122 31.1578C14.0641 31.1564 13.716 31.1577 13.3678 31.1593C13.1476 31.1592 12.9274 31.1589 12.7072 31.1584C12.5504 31.1591 12.5504 31.1591 12.3904 31.1599C11.6539 31.1539 11.6539 31.1539 11.3752 30.8752C11.3439 30.5002 11.3439 30.5002 11.3752 30.1252C11.6252 29.8752 11.6252 29.8752 12.0093 29.8468C12.1703 29.8481 12.3313 29.8494 12.4972 29.8508C12.5829 29.8511 12.6686 29.8515 12.7568 29.8518C13.0307 29.8532 13.3045 29.8564 13.5783 29.8595C13.7638 29.8608 13.9494 29.8619 14.1349 29.863C14.59 29.8655 15.0451 29.8704 15.5002 29.8752C15.5002 28.6377 15.5002 27.4002 15.5002 26.1252C15.0464 26.1252 14.5927 26.1252 14.1252 26.1252C13.8752 25.8752 13.8752 25.8752 13.8451 25.6458C13.8459 25.5067 13.8459 25.5067 13.8468 25.3649C13.8468 25.2598 13.8468 25.1547 13.8468 25.0464C13.8481 24.9329 13.8494 24.8193 13.8508 24.7023C13.8511 24.5861 13.8515 24.47 13.8518 24.3503C13.8532 23.9783 13.8564 23.6065 13.8595 23.2345C13.8608 22.9828 13.8619 22.731 13.863 22.4792C13.8657 21.8612 13.87 21.2432 13.8752 20.6252C13.3501 20.6245 12.8254 20.6287 12.3005 20.6374C12.122 20.6396 11.9435 20.6406 11.7651 20.6402C11.508 20.6398 11.2513 20.6442 10.9943 20.6496C10.7626 20.6515 10.7626 20.6515 10.5262 20.6536C10.0928 20.714 10.0928 20.714 9.84136 21.1134C9.77001 21.241 9.69867 21.3687 9.62517 21.5002C8.93968 22.1041 8.52449 22.169 7.62322 22.1603C6.95754 22.0976 6.63739 21.7809 6.21111 21.297C5.75639 20.6571 5.80296 20.0164 5.87517 19.2502C6.17759 18.6229 6.62507 18.1877 7.25017 17.8752C7.94458 17.8118 8.55246 17.7798 9.18767 18.0861C9.56823 18.4381 9.89219 18.7842 10.1252 19.2502C11.9814 19.312 11.9814 19.312 13.8752 19.3752C13.8752 18.5089 13.8752 17.6427 13.8752 16.7502C13.5352 16.7531 13.1952 16.756 12.8449 16.759C12.5164 16.7609 12.188 16.7624 11.8595 16.7639C11.6308 16.7652 11.4021 16.7669 11.1734 16.769C10.8452 16.7721 10.5169 16.7735 10.1886 16.7746C10.086 16.7759 9.98343 16.7772 9.87771 16.7785C9.62668 16.7785 9.37572 16.7655 9.12517 16.7502C8.87517 16.5002 8.87517 16.5002 8.84541 16.1603C8.846 16.0158 8.8466 15.8713 8.84721 15.7224C8.84715 15.5589 8.84709 15.3953 8.84702 15.2268C8.84751 15.1392 8.84801 15.0515 8.84851 14.9612C8.84979 14.6869 8.84912 14.4127 8.84783 14.1384C8.84433 13.3586 8.84278 12.5788 8.84642 11.7989C8.84851 11.322 8.84697 10.8453 8.84312 10.3684C8.84235 10.1867 8.84296 10.005 8.84497 9.82326C8.84767 9.56895 8.84536 9.3146 8.84282 9.06029C8.84302 8.91559 8.84322 8.7709 8.84342 8.62182C8.78212 8.21512 8.78212 8.21512 8.38744 7.97004C8.25964 7.89749 8.13184 7.82493 8.00017 7.75017C7.39629 7.06468 7.33139 6.64949 7.34001 5.74822C7.40275 5.08254 7.7194 4.76239 8.20329 4.33611C8.84326 3.88139 9.48392 3.92796 10.2502 4.00017ZM8.89079 5.51579C8.6841 5.86028 8.70096 6.10651 8.75017 6.50017C8.87517 6.75017 8.87517 6.75017 9.12517 6.87517C9.51882 6.92438 9.76506 6.94124 10.1095 6.73454C10.3162 6.39006 10.2994 6.14382 10.2502 5.75017C10.1252 5.50017 10.1252 5.50017 9.87517 5.37517C9.48151 5.32596 9.23528 5.3091 8.89079 5.51579ZM19.3908 7.39079C19.1841 7.73528 19.201 7.98151 19.2502 8.37517C19.3752 8.62517 19.3752 8.62517 19.6252 8.75017C20.0188 8.79938 20.2651 8.81624 20.6095 8.60954C20.8162 8.26506 20.7994 8.01882 20.7502 7.62517C20.6252 7.37517 20.6252 7.37517 20.3752 7.25017C19.9815 7.20096 19.7353 7.1841 19.3908 7.39079ZM15.1252 15.1252C15.1252 18.3427 15.1252 21.5602 15.1252 24.8752C18.3427 24.8752 21.5602 24.8752 24.8752 24.8752C24.8752 21.6577 24.8752 18.4402 24.8752 15.1252C21.6577 15.1252 18.4402 15.1252 15.1252 15.1252ZM7.39079 19.3908C7.1841 19.7353 7.20096 19.9815 7.25017 20.3752C7.37517 20.6252 7.37517 20.6252 7.62517 20.7502C8.01882 20.7994 8.26506 20.8162 8.60954 20.6095C8.81624 20.2651 8.79938 20.0188 8.75017 19.6252C8.62517 19.3752 8.62517 19.3752 8.37517 19.2502C7.98151 19.201 7.73528 19.1841 7.39079 19.3908ZM31.3908 19.3908C31.1841 19.7353 31.201 19.9815 31.2502 20.3752C31.3752 20.6252 31.3752 20.6252 31.6252 20.7502C32.0188 20.7994 32.2651 20.8162 32.6095 20.6095C32.8162 20.2651 32.7994 20.0188 32.7502 19.6252C32.6252 19.3752 32.6252 19.3752 32.3752 19.2502C31.9815 19.201 31.7353 19.1841 31.3908 19.3908ZM19.3908 31.3908C19.1841 31.7353 19.201 31.9815 19.2502 32.3752C19.3752 32.6252 19.3752 32.6252 19.6252 32.7502C20.0188 32.7994 20.2651 32.8162 20.6095 32.6095C20.8162 32.2651 20.7994 32.0188 20.7502 31.6252C20.6252 31.3752 20.6252 31.3752 20.3752 31.2502C19.9815 31.201 19.7353 31.1841 19.3908 31.3908ZM29.8908 33.2658C29.6841 33.6103 29.701 33.8565 29.7502 34.2502C29.8752 34.5002 29.8752 34.5002 30.1252 34.6252C30.5188 34.6744 30.7651 34.6912 31.1095 34.4845C31.3162 34.1401 31.2994 33.8938 31.2502 33.5002C31.1252 33.2502 31.1252 33.2502 30.8752 33.1252C30.4815 33.076 30.2353 33.0591 29.8908 33.2658Z" fill="#111111"/>
<path d="M17.8814 17.0927C17.9857 17.0919 18.09 17.0911 18.1974 17.0903C18.3102 17.0908 18.423 17.0913 18.5391 17.0919C18.7125 17.0915 18.7125 17.0915 18.8894 17.0911C19.134 17.091 19.3786 17.0914 19.6232 17.0925C19.9985 17.0938 20.3738 17.0925 20.7491 17.0909C20.9864 17.0911 21.2237 17.0914 21.461 17.0919C21.5738 17.0914 21.6865 17.0909 21.8027 17.0903C21.9591 17.0915 21.9591 17.0915 22.1187 17.0927C22.2107 17.0929 22.3026 17.0931 22.3974 17.0933C22.6251 17.1251 22.6251 17.1251 22.8751 17.3751C22.9068 17.6028 22.9068 17.6028 22.9074 17.8814C22.9082 17.9857 22.909 18.09 22.9098 18.1974C22.9093 18.3102 22.9088 18.423 22.9083 18.5391C22.9086 18.7125 22.9086 18.7125 22.909 18.8894C22.9092 19.134 22.9087 19.3786 22.9077 19.6232C22.9063 19.9985 22.9076 20.3738 22.9092 20.7491C22.9091 20.9864 22.9088 21.2237 22.9083 21.461C22.9088 21.5738 22.9093 21.6865 22.9098 21.8027C22.909 21.907 22.9082 22.0113 22.9074 22.1187C22.9072 22.2107 22.907 22.3026 22.9068 22.3974C22.8751 22.6251 22.8751 22.6251 22.6251 22.8751C22.3974 22.9068 22.3974 22.9068 22.1187 22.9074C22.0144 22.9082 21.9102 22.909 21.8027 22.9098C21.6899 22.9093 21.5772 22.9088 21.461 22.9083C21.2876 22.9086 21.2876 22.9086 21.1108 22.909C20.8661 22.9092 20.6215 22.9087 20.3769 22.9077C20.0016 22.9063 19.6264 22.9076 19.251 22.9092C19.0137 22.9091 18.7764 22.9088 18.5391 22.9083C18.4264 22.9088 18.3136 22.9093 18.1974 22.9098C18.041 22.9086 18.041 22.9086 17.8814 22.9074C17.7895 22.9072 17.6975 22.907 17.6028 22.9068C17.3751 22.8751 17.3751 22.8751 17.1251 22.6251C17.0933 22.3974 17.0933 22.3974 17.0927 22.1187C17.0919 22.0144 17.0911 21.9102 17.0903 21.8027C17.0908 21.6899 17.0913 21.5772 17.0919 21.461C17.0916 21.3454 17.0914 21.2298 17.0911 21.1108C17.091 20.8661 17.0914 20.6215 17.0925 20.3769C17.0938 20.0016 17.0925 19.6264 17.0909 19.251C17.0911 19.0137 17.0914 18.7764 17.0919 18.5391C17.0914 18.4264 17.0909 18.3136 17.0903 18.1974C17.0911 18.0931 17.0919 17.9889 17.0927 17.8814C17.0929 17.7895 17.0931 17.6975 17.0933 17.6028C17.1613 17.115 17.4604 17.0936 17.8814 17.0927ZM18.3751 18.3751C18.3751 19.4476 18.3751 20.5201 18.3751 21.6251C19.4476 21.6251 20.5201 21.6251 21.6251 21.6251C21.6251 20.5526 21.6251 19.4801 21.6251 18.3751C20.5526 18.3751 19.4801 18.3751 18.3751 18.3751Z" fill="#111111"/>
<path d="M6.8752 28.3752C7.50244 28.6776 7.93764 29.1251 8.2502 29.7502C8.31361 30.4446 8.34552 31.0525 8.03926 31.6877C7.19946 32.5956 7.19946 32.5956 6.54902 32.655C5.23159 32.6861 5.23159 32.6861 4.6252 32.1252C4.02131 31.4397 3.95641 31.0245 3.96504 30.1232C4.02777 29.4575 4.34443 29.1374 4.82832 28.7111C5.46829 28.2564 6.10894 28.303 6.8752 28.3752ZM5.51582 29.8908C5.30913 30.2353 5.32599 30.4815 5.3752 30.8752C5.5002 31.1252 5.5002 31.1252 5.7502 31.2502C6.14385 31.2994 6.39008 31.3162 6.73457 31.1095C6.94126 30.7651 6.9244 30.5188 6.8752 30.1252C6.7502 29.8752 6.7502 29.8752 6.5002 29.7502C6.10654 29.701 5.86031 29.6841 5.51582 29.8908Z" fill="#111111"/>
<path d="M34.6252 7.37517C35.2524 7.67759 35.6876 8.12507 36.0002 8.75017C36.0636 9.44458 36.0955 10.0525 35.7893 10.6877C34.9495 11.5956 34.9495 11.5956 34.299 11.655C32.9816 11.6861 32.9816 11.6861 32.3752 11.1252C31.7713 10.4397 31.7064 10.0245 31.715 9.12322C31.7778 8.45754 32.0944 8.13739 32.5783 7.71111C33.2183 7.25639 33.8589 7.30296 34.6252 7.37517ZM33.2658 8.89079C33.0591 9.23528 33.076 9.48151 33.1252 9.87517C33.2502 10.1252 33.2502 10.1252 33.5002 10.2502C33.8939 10.2994 34.1401 10.3162 34.4846 10.1095C34.6913 9.76506 34.6744 9.51882 34.6252 9.12517C34.5002 8.87517 34.5002 8.87517 34.2502 8.75017C33.8565 8.70096 33.6103 8.6841 33.2658 8.89079Z" fill="#111111"/>
<path d="M9.74219 29.8359C10.125 29.875 10.125 29.875 10.3672 30.0156C10.5674 30.369 10.4745 30.6187 10.375 31C10.25 31.125 10.25 31.125 9.82031 31.1484C9.375 31.125 9.375 31.125 9.125 30.875C9.09375 30.5 9.09375 30.5 9.125 30.125C9.375 29.875 9.375 29.875 9.74219 29.8359Z" fill="#111111"/>
<path d="M29.7499 8.875C30.1717 8.85938 30.1717 8.85938 30.6249 8.875C30.8749 9.125 30.8749 9.125 30.9061 9.5C30.8749 9.875 30.8749 9.875 30.6249 10.125C29.9582 10.1667 29.9582 10.1667 29.6249 10C29.5062 9.63411 29.4709 9.44646 29.6171 9.08594C29.6609 9.01633 29.7047 8.94672 29.7499 8.875Z" fill="#111111"/>
</g>
<defs>
<clipPath id="clip0_991_244">
<rect width="32" height="32" fill="white" transform="translate(4 4)"/>
</clipPath>
</defs>
</svg>
