<svg width="120" height="120" viewBox="0 0 120 120" fill="none" xmlns="http://www.w3.org/2000/svg">
<path d="M91.875 0H28.125C12.592 0 0 12.592 0 28.125V91.875C0 107.408 12.592 120 28.125 120H91.875C107.408 120 120 107.408 120 91.875V28.125C120 12.592 107.408 0 91.875 0Z" fill="url(#paint0_radial_991_2194)"/>
<path d="M91.875 0H28.125C12.592 0 0 12.592 0 28.125V91.875C0 107.408 12.592 120 28.125 120H91.875C107.408 120 120 107.408 120 91.875V28.125C120 12.592 107.408 0 91.875 0Z" fill="url(#paint1_radial_991_2194)"/>
<path d="M60.0042 13.125C47.2739 13.125 45.6759 13.1808 40.6763 13.4081C35.6859 13.6369 32.2795 14.4267 29.2992 15.5859C26.2158 16.7831 23.6006 18.3848 20.9953 20.9911C18.3877 23.5969 16.7859 26.212 15.585 29.2941C14.4225 32.2753 13.6317 35.6831 13.4072 40.6711C13.1836 45.6712 13.125 47.2697 13.125 60.0005C13.125 72.7313 13.1813 74.3241 13.4081 79.3237C13.6378 84.3141 14.4277 87.7205 15.5859 90.7008C16.7841 93.7842 18.3858 96.3994 20.992 99.0047C23.5969 101.612 26.212 103.218 29.2931 104.415C32.2758 105.574 35.6827 106.364 40.672 106.593C45.6722 106.82 47.2687 106.876 59.9986 106.876C72.7303 106.876 74.3231 106.82 79.3228 106.593C84.3131 106.364 87.7233 105.574 90.7059 104.415C93.788 103.218 96.3994 101.612 99.0037 99.0047C101.611 96.3994 103.213 93.7842 104.414 90.7022C105.566 87.7205 106.357 84.3131 106.592 79.3247C106.816 74.325 106.875 72.7313 106.875 60.0005C106.875 47.2697 106.816 45.6722 106.592 40.672C106.357 35.6817 105.566 32.2758 104.414 29.2955C103.213 26.212 101.611 23.5969 99.0037 20.9911C96.3966 18.3839 93.7889 16.7822 90.7031 15.5864C87.7148 14.4267 84.3066 13.6364 79.3162 13.4081C74.3161 13.1808 72.7242 13.125 59.9897 13.125H60.0042ZM55.7991 21.5723C57.0473 21.5705 58.44 21.5723 60.0042 21.5723C72.5203 21.5723 74.0034 21.6173 78.9459 21.8419C83.5163 22.0509 85.9969 22.8145 87.6492 23.4563C89.8369 24.3056 91.3964 25.3214 93.0361 26.9625C94.6767 28.6031 95.692 30.1655 96.5438 32.3531C97.1855 34.0031 97.95 36.4837 98.1581 41.0541C98.3827 45.9956 98.4314 47.4797 98.4314 59.9897C98.4314 72.4997 98.3827 73.9842 98.1581 78.9253C97.9491 83.4956 97.1855 85.9762 96.5438 87.6267C95.6944 89.8144 94.6767 91.372 93.0361 93.0117C91.3955 94.6523 89.8378 95.6677 87.6492 96.5175C85.9987 97.162 83.5163 97.9238 78.9459 98.1328C74.0044 98.3573 72.5203 98.4061 60.0042 98.4061C47.4877 98.4061 46.0041 98.3573 41.063 98.1328C36.4927 97.9219 34.012 97.1583 32.3583 96.5166C30.1711 95.6667 28.6083 94.6514 26.9677 93.0108C25.327 91.3702 24.3117 89.8116 23.46 87.623C22.8183 85.9725 22.0538 83.4919 21.8456 78.9216C21.6211 73.98 21.5761 72.4959 21.5761 59.978C21.5761 47.46 21.6211 45.9839 21.8456 41.0423C22.0547 36.472 22.8183 33.9914 23.46 32.3391C24.3098 30.1514 25.327 28.5891 26.9681 26.9484C28.6092 25.3078 30.1711 24.292 32.3587 23.4408C34.0111 22.7963 36.4927 22.0345 41.063 21.8245C45.3872 21.6291 47.063 21.5705 55.7991 21.5606V21.5723ZM85.0261 29.3555C81.9206 29.3555 79.4011 31.8727 79.4011 34.9786C79.4011 38.0841 81.9206 40.6036 85.0261 40.6036C88.1316 40.6036 90.6511 38.0841 90.6511 34.9786C90.6511 31.8731 88.1316 29.3536 85.0261 29.3536V29.3555ZM60.0042 35.9278C46.7105 35.9278 35.932 46.7063 35.932 60.0005C35.932 73.2947 46.7105 84.068 60.0042 84.068C73.2984 84.068 84.0731 73.2947 84.0731 60.0005C84.0731 46.7067 73.2975 35.9278 60.0033 35.9278H60.0042ZM60.0042 44.3752C68.6334 44.3752 75.6295 51.3703 75.6295 60.0005C75.6295 68.6297 68.6334 75.6258 60.0042 75.6258C51.375 75.6258 44.3794 68.6297 44.3794 60.0005C44.3794 51.3703 51.3745 44.3752 60.0042 44.3752Z" fill="white"/>
<defs>
<radialGradient id="paint0_radial_991_2194" cx="0" cy="0" r="1" gradientUnits="userSpaceOnUse" gradientTransform="translate(31.875 129.242) rotate(-90) scale(118.929 110.613)">
<stop stop-color="#FFDD55"/>
<stop offset="0.1" stop-color="#FFDD55"/>
<stop offset="0.5" stop-color="#FF543E"/>
<stop offset="1" stop-color="#C837AB"/>
</radialGradient>
<radialGradient id="paint1_radial_991_2194" cx="0" cy="0" r="1" gradientUnits="userSpaceOnUse" gradientTransform="translate(-20.1005 8.64422) rotate(78.681) scale(53.1619 219.135)">
<stop stop-color="#3771C8"/>
<stop offset="0.128" stop-color="#3771C8"/>
<stop offset="1" stop-color="#6600FF" stop-opacity="0"/>
</radialGradient>
</defs>
</svg>
