<svg width="25" height="25" viewBox="0 0 25 25" fill="none" xmlns="http://www.w3.org/2000/svg">
<path d="M12.2552 8.16602C11.1059 8.16602 10.0037 8.62256 9.19108 9.43522C8.37842 10.2479 7.92188 11.3501 7.92188 12.4993C7.92188 13.6486 8.37842 14.7508 9.19108 15.5635C10.0037 16.3761 11.1059 16.8327 12.2552 16.8327C13.4045 16.8327 14.5067 16.3761 15.3193 15.5635C16.132 14.7508 16.5885 13.6486 16.5885 12.4993C16.5885 11.3501 16.132 10.2479 15.3193 9.43522C14.5067 8.62256 13.4045 8.16602 12.2552 8.16602Z" fill="#2E2878"/>
<path fill-rule="evenodd" clip-rule="evenodd" d="M5.28268 0.608704C9.9174 0.0952758 14.5946 0.0952758 19.2294 0.608704C21.7614 0.89137 23.8027 2.8847 24.1 5.42604C24.6493 10.1256 24.6493 14.8731 24.1 19.5727C23.8027 22.114 21.7614 24.1074 19.2307 24.3914C14.5955 24.9049 9.91784 24.9049 5.28268 24.3914C2.75068 24.1074 0.709351 22.114 0.412018 19.574C-0.137339 14.874 -0.137339 10.126 0.412018 5.42604C0.709351 2.8847 2.75068 0.89137 5.28268 0.608704ZM18.9227 4.49937C18.5691 4.49937 18.2299 4.63985 17.9799 4.8899C17.7298 5.13994 17.5894 5.47908 17.5894 5.8327C17.5894 6.18633 17.7298 6.52546 17.9799 6.77551C18.2299 7.02556 18.5691 7.16604 18.9227 7.16604C19.2763 7.16604 19.6154 7.02556 19.8655 6.77551C20.1155 6.52546 20.256 6.18633 20.256 5.8327C20.256 5.47908 20.1155 5.13994 19.8655 4.8899C19.6154 4.63985 19.2763 4.49937 18.9227 4.49937ZM5.92268 12.4994C5.92268 10.8197 6.58994 9.20876 7.77768 8.02103C8.96541 6.8333 10.5763 6.16604 12.256 6.16604C13.9357 6.16604 15.5466 6.8333 16.7344 8.02103C17.9221 9.20876 18.5894 10.8197 18.5894 12.4994C18.5894 14.1791 17.9221 15.79 16.7344 16.9777C15.5466 18.1654 13.9357 18.8327 12.256 18.8327C10.5763 18.8327 8.96541 18.1654 7.77768 16.9777C6.58994 15.79 5.92268 14.1791 5.92268 12.4994Z" fill="#2E2878"/>
</svg>
